<svg width="250" height="223" viewBox="0 0 250 223" fill="none" xmlns="http://www.w3.org/2000/svg">
<path d="M133.582 0L141.012 2.21337L137.375 33.8744L133.414 32.4507L133.582 0Z" fill="#B8BFCD"/>
<path d="M133.104 36.0879L136.741 37.5248L136.275 40.5279L132.625 39.2594L133.104 36.0879Z" fill="#B8BFCD"/>
<path d="M146.877 16.9434L154.32 19.0013L150.838 39.2588L146.722 37.8348L146.877 16.9434Z" fill="#B8BFCD"/>
<path d="M146.398 41.3164L150.048 42.7404L149.569 45.588L145.932 44.3195L146.398 41.3164Z" fill="#B8BFCD"/>
<path d="M185.191 157.038H87.8256C87.8256 157.038 93.2104 155.303 83.8649 157.038C74.3769 158.785 74.3769 158.461 75.1665 152.455C75.9561 146.437 81.6514 140.262 86.0912 133.609C85.6123 127.279 87.6703 120.626 95.1131 114.452C95.1131 114.296 95.1131 114.141 95.1131 113.986C91.4629 77.7297 110.62 89.5994 126.619 83.5805L124.561 82.1565L147.99 72.0342C147.99 72.0342 154.63 73.7687 160.804 77.2507C165.399 79.943 169.671 83.4249 170.305 87.8647C171.095 92.9258 170.305 99.5791 169.192 105.753C168.247 111.293 167.134 116.355 166.823 119.681C166.823 120.315 166.668 120.781 166.668 121.26C167.768 126.49 175.055 134.243 174.11 139.304C176.635 141.997 179.806 150.074 180.272 153.556C180.906 157.037 185.191 157.038 185.191 157.038Z" fill="#DDE3EE"/>
<path opacity="0.1" d="M169.192 105.752C168.247 111.292 167.134 116.354 166.824 119.836C164.455 124.107 160.17 126.799 154.32 130.126C153.051 130.916 151.472 131.55 150.048 132.029C147.99 132.663 145.932 133.297 143.874 133.608C137.531 134.876 131.046 135.187 124.561 133.932C119.177 132.818 113.792 131.071 108.886 128.223C107.294 127.278 105.56 126.165 104.136 124.897C99.8644 121.259 96.5376 118.101 94.7902 114.296C93.211 111.124 92.9004 107.487 93.69 102.581C95.5798 92.1354 98.1169 84.2137 98.1169 84.2137C98.2722 83.4241 99.5407 82.324 100.02 81.6897C100.809 80.9001 101.288 79.942 102.078 79.1524C103.346 77.5732 104.925 75.8261 106.194 74.2469C109.352 71.0756 112.847 68.5514 116.963 66.9592C123.604 64.5905 130.736 64.901 137.531 65.8589C142.45 66.4931 147.667 67.5934 152.106 70.1305C155.42 72.0332 158.112 74.4021 160.494 77.4052C160.96 77.8841 161.284 78.5183 161.762 78.9972C164.455 82.9581 166.345 87.385 168.558 91.6565C168.726 91.6565 169.192 97.52 169.192 105.752Z" fill="#AAB2C5"/>
<path d="M36.2188 157.191H242.171" stroke="#D6DCE8" stroke-width="2.06617" stroke-miterlimit="10" stroke-linecap="round" stroke-linejoin="round"/>
<path d="M12 157.191H25.1382" stroke="#D6DCE8" stroke-width="2.06617" stroke-miterlimit="10" stroke-linecap="round" stroke-linejoin="round"/>
<path d="M155.109 117.622C153.84 118.412 152.261 119.046 150.837 119.525C148.935 120.159 146.721 120.78 144.663 121.104C138.333 122.373 131.836 122.683 125.351 121.259C119.966 120.159 114.581 118.412 109.675 115.564C107.928 114.619 106.349 113.506 104.925 112.237C96.848 105.429 92.5764 100.368 94.4791 89.9218C96.3819 79.463 98.7507 71.7095 98.7507 71.7095C98.906 70.9199 100.175 69.8068 100.653 69.1855C101.443 68.3829 101.922 67.4381 102.712 66.6485C103.98 65.0693 105.404 63.3218 106.828 61.7427C109.986 58.5714 113.468 56.0345 117.584 54.4553C124.237 52.0866 131.357 52.3971 138.165 53.355C143.239 53.9763 148.3 55.0895 152.727 57.6266C156.688 59.84 159.704 62.8431 162.228 66.4933C164.921 70.4413 166.823 74.8809 169.037 79.3078C169.037 79.3078 169.826 87.5402 169.516 98.1543C169.516 108.755 164.286 112.561 155.109 117.622Z" fill="#EAEEF9"/>
<path d="M120.911 90.7124C119.332 91.8126 116.95 96.097 110.31 92.6151C100.964 87.541 103.346 74.8816 109.197 71.3997C119.643 65.2254 129.144 69.6524 129.622 79.3086C130.101 89.5991 124.238 88.6543 120.911 90.7124Z" fill="#BFC8D6"/>
<path d="M173.632 151.186C172.364 152.765 172.674 155.134 174.422 156.403C175.367 157.037 176.325 157.671 176.791 159.25C177.904 162.422 188.039 169.864 193.255 168.272C198.64 166.693 204.504 162.732 203.08 156.247C201.811 149.762 196.116 146.591 193.255 146.436C190.408 146.112 180.441 145.012 177.114 147.536C175.846 148.649 174.577 150.073 173.632 151.186Z" fill="#EAEEF9"/>
<path d="M90.3629 151.185C91.6314 152.764 91.3078 155.133 89.5733 156.401C88.6155 157.035 87.6704 157.67 87.1915 159.249C86.0913 162.42 75.9562 169.863 70.7268 168.284C65.5103 166.692 59.4914 162.731 60.9153 156.246C62.1838 149.761 67.8791 146.589 70.7268 146.434C73.5745 146.279 83.5543 145.01 86.8809 147.534C88.3047 148.648 89.5733 150.072 90.3629 151.185Z" fill="#EAEEF9"/>
<path d="M115.526 88.6534C119.643 89.1323 123.293 86.1165 123.759 82.0003C124.238 77.8841 121.235 74.2467 117.119 73.7678C113.002 73.2889 109.352 76.3047 108.886 80.4209C108.407 84.5371 111.41 88.1745 115.526 88.6534Z" fill="white"/>
<path d="M122.814 82.7893C122.503 85.9606 119.643 88.3294 116.484 88.0187C113.313 87.6951 110.944 84.8476 111.255 81.6893C111.734 82.1552 112.368 82.634 113.002 82.7893C114.426 82.9576 115.695 81.9996 115.85 80.4204C116.005 78.9966 115.06 77.7282 113.637 77.5728C114.737 76.7832 116.161 76.4597 117.584 76.615C120.911 76.7833 123.124 79.4627 122.814 82.7893Z" fill="#989FB0"/>
<path d="M151.628 92.4453C155.744 92.9242 159.381 89.9214 159.86 85.8052C160.339 81.689 157.323 78.0386 153.207 77.5727C149.091 77.0937 145.453 80.0969 144.974 84.2131C144.508 88.4976 147.511 92.1347 151.628 92.4453Z" fill="white"/>
<path d="M145.607 85.1715C145.297 88.3299 147.666 91.1774 150.837 91.501C153.995 91.8117 156.843 89.4429 157.167 86.2716C156.688 86.7505 155.898 87.0741 155.264 86.9058C153.84 86.7505 152.727 85.482 152.895 84.0582C153.05 82.6344 154.319 81.6897 155.743 81.6897C154.785 80.7318 153.529 80.0974 152.105 79.9421C148.934 79.6314 146.086 81.8449 145.607 85.1715Z" fill="#989FB0"/>
<path d="M120.121 63.4773C117.429 63.9562 115.06 64.4351 113.157 65.6907C111.254 66.9592 109.352 69.0172 108.407 71.3989C108.407 71.5542 108.251 71.5544 108.096 71.5544C107.928 71.5544 107.928 71.3989 107.928 71.3989C108.096 70.1304 108.73 68.7066 109.52 67.5934C110.154 66.3249 111.254 65.3799 112.523 64.5903C113.791 63.8007 114.892 63.1665 116.328 62.6876C117.752 62.5323 119.176 62.3769 120.445 63.0112C120.276 63.0112 120.6 63.322 120.121 63.4773C120.276 63.4773 120.276 63.4773 120.121 63.4773Z" fill="#989FB0"/>
<path d="M152.572 69.1861C154.953 70.131 157.011 71.0759 158.746 72.668C160.338 74.2471 161.594 76.6161 162.073 78.9978C162.073 79.1531 162.228 79.1529 162.383 79.1529C162.552 79.1529 162.552 78.9978 162.552 78.9978C162.707 77.7293 162.228 76.3055 161.917 75.1923C161.438 73.9238 160.804 72.668 159.704 71.7101C158.746 70.7652 157.801 69.8074 156.533 69.1861C155.264 68.7072 153.84 68.3836 152.572 68.5519C152.416 68.7072 152.416 68.8625 152.572 69.1861Z" fill="#989FB0"/>
<path d="M166.668 62.2092C163.82 58.4166 159.704 59.5166 161.283 63.9564C163.82 70.9203 168.558 74.2469 169.827 100.213C170.15 104.795 185.502 94.9834 185.502 78.6739C185.502 75.6709 181.864 74.5578 181.864 74.5578C179.651 73.9235 171.25 68.0728 166.668 62.2092Z" fill="#989FB0"/>
<path d="M36.2184 74.5576C36.2184 74.5576 19.443 69.6518 22.1353 75.1919C24.8277 80.7319 32.2576 91.8119 44.1402 94.5042C56.0098 97.0413 48.8906 86.5954 49.0459 86.7508L36.2184 74.5576Z" fill="#EEEEEE"/>
<g filter="url(#filter0_d_1685_8551)">
<path d="M18.4859 63.8018C22.7704 68.5522 40.659 75.5162 55.221 74.8819C57.2791 90.0782 58.8583 94.6733 61.5507 96.5631C54.2632 98.4659 34.64 96.8866 31.9477 82.1563C18.1752 82.7905 18.4859 63.8018 18.4859 63.8018Z" fill="url(#paint0_linear_1685_8551)"/>
</g>
<g filter="url(#filter1_d_1685_8551)">
<path d="M207.662 119.992C212.413 116.834 220.969 102.104 222.224 89.4446C235.686 89.4446 239.802 88.8101 242.015 86.5967C242.65 93.237 241.381 109.547 229.991 119.203C217.318 120.471 207.662 119.992 207.662 119.992Z" fill="url(#paint1_linear_1685_8551)"/>
</g>
<g filter="url(#filter2_d_1685_8551)">
<path d="M172.052 171.767C150.047 175.404 146.087 176.038 137.699 174.925C129.298 173.825 117.584 172.388 113.636 179.999C111.889 170.019 107.928 160.842 100.653 153.878C101.119 153.244 101.443 152.286 101.443 151.341C101.443 149.438 100.33 147.859 98.595 147.225C98.9057 146.591 99.061 145.956 99.061 145.322C99.061 142.953 97.1711 140.895 94.6341 140.895C93.2102 140.895 91.9418 141.529 91.1522 142.63C91.3075 141.84 91.4629 141.206 91.4629 140.895C91.4629 138.514 89.573 136.455 87.0359 136.455C85.7674 136.455 84.499 137.09 83.7094 138.047C83.0751 137.09 82.1301 136.455 80.8616 136.455C78.9589 136.455 77.5351 137.879 77.5351 139.782C77.5351 140.106 77.5351 140.895 77.5351 141.84C66.2997 138.203 63.918 138.047 63.918 138.047C70.7265 124.586 103.022 104.95 126.295 108.6C141.181 110.813 157.956 114.929 166.499 131.239C166.033 131.071 165.554 130.915 165.075 130.915C164.92 130.915 164.609 130.915 164.286 131.071C163.496 129.97 162.228 129.336 160.804 129.336C158.59 129.336 156.843 130.915 156.532 132.973C156.377 132.973 155.743 132.973 155.264 132.973C152.895 132.973 150.992 134.876 150.992 137.245C150.992 138.992 152.105 140.572 153.685 141.206C152.895 141.996 152.416 142.953 152.416 144.222C152.416 146.59 154.319 148.493 156.688 148.493C158.28 148.493 159.535 147.704 160.338 146.591C161.127 147.704 162.383 148.493 163.975 148.493C166.344 148.493 168.247 146.59 168.247 144.222C168.247 144.053 168.247 144.053 168.247 143.898C169.36 143.419 170.305 142.474 170.615 141.361C172.674 149.283 173.476 159.25 172.052 171.767Z" fill="url(#paint2_linear_1685_8551)"/>
</g>
<path d="M116.795 160.208C122.969 158.306 149.246 152.455 164.287 154.19L116.795 160.208Z" fill="white"/>
<path fill-rule="evenodd" clip-rule="evenodd" d="M137.389 156.843C128.198 158.332 120.134 160.261 117.105 161.193L116.497 159.225C119.642 158.254 127.81 156.3 137.052 154.811C146.294 153.336 156.74 152.274 164.403 153.167L164.17 155.212C156.805 154.358 146.592 155.368 137.389 156.843Z" fill="#D6DCE8"/>
<path d="M110.62 151.82C115.694 149.594 140.068 144.533 152.416 144.054L110.62 151.82Z" fill="white"/>
<path fill-rule="evenodd" clip-rule="evenodd" d="M117.804 150.733C114.607 151.522 112.212 152.247 111.034 152.752L110.206 150.875C111.565 150.28 114.115 149.529 117.312 148.739C120.522 147.937 124.444 147.083 128.599 146.267C136.884 144.662 146.126 143.264 152.378 143.031L152.455 145.089C146.359 145.322 137.246 146.694 128.988 148.3C124.859 149.089 120.975 149.943 117.804 150.733Z" fill="#D6DCE8"/>
<path d="M104.77 142.475C124.872 131.239 140.702 135.99 153.685 126.01L104.77 142.475Z" fill="white"/>
<path fill-rule="evenodd" clip-rule="evenodd" d="M132.081 134.786C123.991 136.248 115.164 137.841 105.274 143.368L104.265 141.581C114.465 135.873 123.577 134.229 131.667 132.767L131.719 132.754C139.835 131.278 146.799 130.01 153.051 125.194L154.306 126.825C147.614 131.964 140.197 133.31 132.172 134.76L132.081 134.786Z" fill="#D6DCE8"/>
<path d="M98.2715 135.355C106.827 129.492 114.102 126.799 123.926 126.01L98.2715 135.355Z" fill="white"/>
<path fill-rule="evenodd" clip-rule="evenodd" d="M124.005 127.033C114.387 127.81 107.268 130.438 98.8544 136.198L97.6895 134.502C106.375 128.548 113.831 125.791 123.836 124.988L124.005 127.033Z" fill="#D6DCE8"/>
<path d="M151.303 112.237C151.303 112.393 151.303 112.716 151.303 112.871V113.027C151.303 113.182 151.303 113.35 151.148 113.506C150.203 116.043 146.087 119.046 141.815 119.525C137.531 119.991 133.104 118.256 131.201 111.124C126.619 115.564 122.179 116.198 118.542 115.24C113.792 113.985 110.62 110.179 110.465 109.066C110.465 108.6 110.465 108.121 110.62 107.642C111.733 97.3516 121.7 90.0773 132.949 91.3458C144.184 92.7696 152.416 102.102 151.303 112.237Z" fill="#BFC8D6"/>
<path d="M132.949 92.9251C131.991 92.7698 130.891 92.7698 129.933 92.9251C128.678 93.2357 126.775 93.5593 126.451 95.1385C126.296 97.1966 130.736 99.5783 131.991 99.7337C133.26 99.889 138.165 98.6205 138.489 96.5624C138.644 94.5043 136.897 93.7147 135.318 93.2357C134.528 93.0804 133.583 92.7698 132.949 92.9251Z" fill="#989FB0"/>
<path fill-rule="evenodd" clip-rule="evenodd" d="M131.641 103.527C131.564 101.417 131.305 99.2034 131.098 97.8313L132.366 97.624C132.586 99.0479 132.858 101.313 132.923 103.475C132.962 104.562 132.962 105.65 132.871 106.594C132.793 107.513 132.625 108.394 132.314 109.015L131.149 108.445C131.357 108.031 131.499 107.358 131.59 106.478C131.667 105.598 131.667 104.588 131.641 103.527Z" fill="#989FB0"/>
<path d="M106.504 61.4184L106.349 63.166C105.559 63.9555 104.925 64.9002 104.136 65.8581C100.019 71.3981 96.2138 78.6727 95.1136 87.8629C94.79 86.7497 91.4635 74.8801 90.8422 72.6667C90.6739 72.1877 90.5186 71.8643 90.5186 71.8643V68.5505L93.5215 61.8975L101.288 57.9365L106.504 61.4184Z" fill="#6F788D"/>
<path d="M113.468 56.5128C111.255 58.092 108.731 60.3185 106.349 63.1662C105.56 63.9558 104.925 64.9005 104.136 65.8583C103.812 61.4185 98.5957 60.7844 98.5957 60.7844C97.9615 64.7453 94.4795 69.185 90.674 72.6669C87.5157 75.5146 84.0338 77.5729 81.8074 77.7282C81.1731 77.7282 80.707 77.2491 81.0177 76.6149C82.6098 72.4987 82.131 66.4928 82.6099 63.4768C83.2312 60.1502 92.7321 55.0892 97.6379 53.1864C101.443 51.7626 111.41 53.8204 113.468 56.5128Z" fill="#989FB0"/>
<defs>
<filter id="filter0_d_1685_8551" x="0.298409" y="50.8111" width="69.0468" height="59.3915" filterUnits="userSpaceOnUse" color-interpolation-filters="sRGB">
<feFlood flood-opacity="0" result="BackgroundImageFix"/>
<feColorMatrix in="SourceAlpha" type="matrix" values="0 0 0 0 0 0 0 0 0 0 0 0 0 0 0 0 0 0 127 0" result="hardAlpha"/>
<feOffset dx="-5.19627"/>
<feGaussianBlur stdDeviation="6.49534"/>
<feColorMatrix type="matrix" values="0 0 0 0 0.397708 0 0 0 0 0.47749 0 0 0 0 0.575 0 0 0 0.15 0"/>
<feBlend mode="normal" in2="BackgroundImageFix" result="effect1_dropShadow_1685_8551"/>
<feBlend mode="normal" in="SourceGraphic" in2="effect1_dropShadow_1685_8551" result="shape"/>
</filter>
<filter id="filter1_d_1685_8551" x="189.475" y="73.606" width="60.4677" height="59.4657" filterUnits="userSpaceOnUse" color-interpolation-filters="sRGB">
<feFlood flood-opacity="0" result="BackgroundImageFix"/>
<feColorMatrix in="SourceAlpha" type="matrix" values="0 0 0 0 0 0 0 0 0 0 0 0 0 0 0 0 0 0 127 0" result="hardAlpha"/>
<feOffset dx="-5.19627"/>
<feGaussianBlur stdDeviation="6.49534"/>
<feColorMatrix type="matrix" values="0 0 0 0 0.397708 0 0 0 0 0.47749 0 0 0 0 0.575 0 0 0 0.15 0"/>
<feBlend mode="normal" in2="BackgroundImageFix" result="effect1_dropShadow_1685_8551"/>
<feBlend mode="normal" in="SourceGraphic" in2="effect1_dropShadow_1685_8551" result="shape"/>
</filter>
<filter id="filter2_d_1685_8551" x="35.3385" y="93.8655" width="166.011" height="129.003" filterUnits="userSpaceOnUse" color-interpolation-filters="sRGB">
<feFlood flood-opacity="0" result="BackgroundImageFix"/>
<feColorMatrix in="SourceAlpha" type="matrix" values="0 0 0 0 0 0 0 0 0 0 0 0 0 0 0 0 0 0 127 0" result="hardAlpha"/>
<feOffset dy="14.2897"/>
<feGaussianBlur stdDeviation="14.2897"/>
<feColorMatrix type="matrix" values="0 0 0 0 0.397708 0 0 0 0 0.47749 0 0 0 0 0.575 0 0 0 0.27 0"/>
<feBlend mode="normal" in2="BackgroundImageFix" result="effect1_dropShadow_1685_8551"/>
<feBlend mode="normal" in="SourceGraphic" in2="effect1_dropShadow_1685_8551" result="shape"/>
</filter>
<linearGradient id="paint0_linear_1685_8551" x1="40.0118" y1="63.0251" x2="40.0118" y2="97.5727" gradientUnits="userSpaceOnUse">
<stop stop-color="#FDFEFF"/>
<stop offset="0.9964" stop-color="#ECF0F5"/>
</linearGradient>
<linearGradient id="paint1_linear_1685_8551" x1="224.903" y1="85.82" x2="224.903" y2="120.445" gradientUnits="userSpaceOnUse">
<stop stop-color="#FDFEFF"/>
<stop offset="0.9964" stop-color="#ECF0F5"/>
</linearGradient>
<linearGradient id="paint2_linear_1685_8551" x1="118.309" y1="106.49" x2="118.309" y2="180.763" gradientUnits="userSpaceOnUse">
<stop stop-color="#FDFEFF"/>
<stop offset="0.9964" stop-color="#ECF0F5"/>
</linearGradient>
</defs>
</svg>
