<svg width="220" height="220" viewBox="0 0 220 220" fill="none" xmlns="http://www.w3.org/2000/svg">
<path d="M74.2939 61.0005C74.2186 60.8785 74.1829 60.7365 74.1918 60.5945C74.2006 60.4525 74.2537 60.3175 74.3434 60.2085C75.2637 59.0865 75.8486 57.6473 76.0979 55.891C76.1033 55.8517 76.1203 55.8149 76.1469 55.7854C76.1734 55.7559 76.2082 55.735 76.2468 55.7255C76.2853 55.716 76.3258 55.7184 76.363 55.7322C76.4002 55.746 76.4324 55.7707 76.4554 55.803L84.5569 67.617C84.5634 67.6255 84.5673 67.6358 84.568 67.6465C84.5687 67.6572 84.5663 67.6679 84.5611 67.6772C84.5558 67.6866 84.5479 67.6942 84.5384 67.6991C84.5289 67.7041 84.5181 67.7061 84.5074 67.705L80.5914 67.3585C80.5303 67.3532 80.4706 67.3354 80.4158 67.3061C80.361 67.2768 80.3123 67.2367 80.2724 67.188C79.1174 65.8093 77.8506 64.5663 76.4719 63.459C75.6066 62.766 74.8806 61.9465 74.2939 61.0005Z" fill="#D1F0C2"/>
<path d="M130.85 194.007C134.178 186.379 137.478 178.519 140.932 170.858C141.02 170.66 141.124 170.649 141.245 170.825C145.429 176.915 150.188 182.967 155.523 188.98C155.551 189.011 155.571 189.048 155.583 189.088C155.594 189.128 155.596 189.17 155.589 189.212C155.583 189.253 155.567 189.292 155.543 189.326C155.519 189.36 155.488 189.388 155.452 189.409C146.568 194.326 137.063 197.718 126.94 199.584C126.749 199.621 126.632 199.546 126.588 199.359L125.812 196.081C125.6 195.179 125.944 194.827 126.846 195.025C127.154 195.091 127.459 195.173 127.759 195.272C129.241 195.76 130.271 195.338 130.85 194.007Z" fill="#94DB70"/>
<path d="M153.428 28.7155C154.495 28.644 155.925 28.347 156.354 27.236C156.559 26.7043 156.939 26.3762 157.493 26.2515C157.727 26.1965 157.929 26.224 158.098 26.334C158.728 26.7483 158.893 27.3002 158.593 27.9895C157.72 29.9878 156.052 30.987 153.588 30.987C152.891 30.987 152.477 30.646 152.345 29.964C152.33 29.887 152.328 29.8118 152.339 29.7385C152.423 29.1005 152.786 28.7595 153.428 28.7155Z" fill="#142711"/>
<path d="M166.413 30.294C166.021 29.7843 165.984 29.2802 166.303 28.7815C166.403 28.6266 166.539 28.498 166.699 28.4071C166.859 28.3161 167.038 28.2655 167.222 28.2595C167.406 28.2535 167.588 28.2925 167.753 28.3729C167.918 28.4533 168.06 28.5728 168.168 28.721C168.965 29.821 169.356 33.275 167.222 33.3575C167.045 33.3649 166.868 33.3277 166.709 33.2493C166.55 33.1709 166.413 33.0539 166.311 32.9089C166.208 32.764 166.144 32.5957 166.124 32.4194C166.103 32.2431 166.127 32.0646 166.193 31.9L166.523 31.086C166.633 30.8 166.597 30.536 166.413 30.294Z" fill="#142711"/>
<path d="M145.326 32.296C146.976 32.6865 148.483 31.9825 149.055 30.349C149.111 30.1929 149.204 30.0527 149.326 29.9406C149.447 29.8285 149.594 29.7478 149.754 29.7055C150.154 29.6028 150.493 29.6377 150.771 29.81C151.307 30.1437 151.461 30.6038 151.233 31.1905C150.15 33.979 147.053 35.6675 144.177 34.3475C143.774 34.1642 143.603 33.8525 143.665 33.4125C143.797 32.4408 144.351 32.0687 145.326 32.296Z" fill="#142711"/>
<path d="M156.728 37.103C155.32 37.0535 155.386 34.683 157.113 34.8095C158.694 34.9232 159.828 35.6162 160.518 36.8885C161.029 37.8345 160.413 38.995 159.242 38.742C159.018 38.6907 158.86 38.7695 158.769 38.9785C157.738 41.2665 156.164 42.9458 154.044 44.0165C153.502 44.2915 153.025 44.2053 152.614 43.758C152.556 43.6957 152.512 43.6242 152.482 43.5435C152.193 42.7918 152.405 42.2345 153.12 41.8715C154.924 40.9438 156.193 39.4533 156.926 37.4C156.996 37.2057 156.93 37.1067 156.728 37.103Z" fill="#142711"/>
<path d="M64.5754 35.552C63.3654 36.4815 62.1169 36.0085 61.3909 34.8425C60.7474 33.8085 59.1029 31.9495 59.2074 30.767C59.2661 30.107 59.6217 29.5955 60.2744 29.2325C61.1984 28.8438 61.9372 28.9776 62.4909 29.634C62.8649 30.074 63.5982 31.1171 64.6909 32.7635C65.3619 33.77 65.4389 34.694 64.5754 35.552Z" fill="#142711"/>
<path d="M71.148 45.012C70.2405 45.837 68.9205 45.771 68.2275 44.7535C67.5015 43.6901 66.7755 42.6286 66.0495 41.569C65.3785 40.5845 65.7305 39.38 66.737 38.7585C67.8315 38.2635 68.662 38.621 69.3605 39.6055C70.0938 40.6468 70.8216 41.69 71.544 42.735C72.0353 43.4463 71.9033 44.2053 71.148 45.012Z" fill="#142711"/>
<path d="M112.673 106.915L134.866 115.225C135.042 115.287 135.093 115.407 135.02 115.583C122.106 145.957 112.734 168.223 106.904 182.38C106.383 183.641 106.871 184.756 108.367 185.724C109.701 186.589 111.104 187.409 112.574 188.183C112.776 188.289 112.858 188.454 112.822 188.678C112.455 190.962 111.577 192.88 110.187 194.431C107.47 197.461 103.103 199.199 99.0827 200.244C98.7013 200.343 98.3072 200.365 97.9002 200.31C71.7752 196.944 48.6807 182.892 33.2587 161.491C33.2215 161.439 33.195 161.38 33.1807 161.318C33.1664 161.256 33.1646 161.192 33.1754 161.13C33.1861 161.067 33.2093 161.007 33.2434 160.954C33.2775 160.901 33.322 160.855 33.3742 160.82L112.206 106.97C112.349 106.871 112.505 106.852 112.673 106.915Z" fill="#94DB70"/>
<path d="M172.909 129.547C172.912 129.536 172.918 129.525 172.926 129.516C172.934 129.507 172.944 129.5 172.955 129.495C172.965 129.489 172.977 129.487 172.989 129.486C173.001 129.486 173.013 129.488 173.024 129.492L198.269 138.941C198.453 139.011 198.511 139.137 198.445 139.321C193.294 153.232 185.243 165.376 174.295 175.753C174.185 175.855 174.088 175.844 174.003 175.72C170.124 170.106 165.893 164.712 161.309 159.539C161.263 159.488 161.233 159.425 161.223 159.358C161.212 159.29 161.221 159.221 161.249 159.159C165.377 149.703 169.264 139.832 172.909 129.547Z" fill="#94DB70"/>
<path d="M91.7952 201.713C44.5172 192.544 11.2972 150.161 13.6897 102.069C16.7477 40.6395 76.1312 -2.222 135.438 13.926C135.65 13.9847 135.836 13.937 135.993 13.783C138.923 10.9707 142.674 9.58467 147.246 9.625C154.407 9.691 161.623 12.738 164.934 19.316C165.063 19.5763 165.163 19.5672 165.237 19.2885C165.673 17.6275 165.871 15.9592 165.831 14.2835C165.812 13.5245 166.179 13.0845 166.931 12.9635C167.033 12.9452 167.138 12.9488 167.244 12.9745C167.794 13.1102 168.089 13.4603 168.13 14.025C168.24 15.5283 168.088 17.1582 167.673 18.9145C167.607 19.1895 167.701 19.2665 167.954 19.1455C168.944 18.6835 171.138 17.4845 171.903 18.799C171.998 18.9607 172.051 19.1433 172.058 19.3307C172.064 19.518 172.025 19.7043 171.942 19.873C171.859 20.0416 171.736 20.1875 171.583 20.2975C171.431 20.4076 171.253 20.4785 171.067 20.504C170.685 20.5553 170.31 20.6378 169.939 20.7515C169.602 20.8542 169.6 20.9587 169.934 21.065C176 23.001 176.512 29.975 174.361 34.925C174.317 35.024 174.336 35.1102 174.416 35.1835C177.625 38.0435 180.574 41.0703 183.266 44.264C183.387 44.407 183.541 44.473 183.728 44.462C184.868 44.3997 185.895 44.6692 186.808 45.2705C190.225 47.5145 193.371 49.907 196.246 52.448C198.38 54.329 199.172 57.497 199.804 60.203C199.859 60.434 199.995 60.599 200.211 60.698C203.544 62.2197 205.555 64.8707 206.245 68.651C207.513 75.6287 207.271 82.7548 205.519 90.0295C205.321 90.8508 205.282 91.6832 205.403 92.5265C210.084 124.548 199.161 155.397 175.659 177.7C175.498 177.854 175.474 178.026 175.588 178.217C176.182 179.229 176.79 180.316 177.414 181.478C178.591 183.684 177.749 184.96 175.786 186.12C175.573 186.245 175.56 186.39 175.747 186.555C178.503 188.953 180.774 191.516 181.858 194.893C182.206 195.971 181.944 196.902 181.071 197.687C176.847 201.504 172.845 204.981 169.065 208.12C167.609 209.33 165.922 210.014 164.005 210.172C160.815 210.432 157.46 210.459 153.94 210.254C152.33 210.159 151.415 209.301 151.195 207.68C150.728 204.243 152.675 201.911 155.832 201.124C159.379 200.244 163.697 197.786 165.253 194.354C165.499 193.815 165.385 193.725 164.912 194.084C163.499 195.151 161.926 196.196 160.353 194.546C159.363 193.505 158.428 192.441 157.548 191.356C157.405 191.176 157.231 191.14 157.025 191.246C147.345 196.422 137.533 200.134 127.1 201.911C126.898 201.944 126.801 202.063 126.808 202.268C126.9 204.277 126.7 206.274 126.209 208.258C125.851 209.693 124.691 210.243 123.321 210.243C111.98 210.239 101.378 210.236 91.5147 210.232C90.3762 210.232 89.2103 209.402 89.0343 208.269C88.5613 205.233 89.4944 203.137 91.8337 201.982C92.0867 201.857 92.0739 201.768 91.7952 201.713ZM59.2297 27.753C34.3917 43.725 18.0897 70.708 16.1262 100.227C14.7219 121.339 19.8314 140.895 31.4547 158.895C31.5757 159.078 31.7261 159.108 31.9057 158.983L110.187 105.507C110.36 105.389 110.387 105.244 110.27 105.072L100.634 91.0415C100.521 90.8759 100.347 90.7612 100.15 90.7225C92.2572 89.034 84.3207 86.867 77.2477 83.688C74.6517 82.522 75.0312 80.6685 75.8947 78.4685C75.91 78.4293 75.9166 78.3872 75.9141 78.3452C75.9116 78.3032 75.9 78.2623 75.8801 78.2252C75.8603 78.1881 75.8326 78.1557 75.7991 78.1303C75.7655 78.1049 75.7268 78.0871 75.6857 78.078C72.2207 77.352 68.2332 76.351 65.2412 74.3985C65.0836 74.2922 64.9461 74.316 64.8287 74.47C63.4262 76.307 62.1942 79.53 59.1527 77.3575C57.7301 76.3382 57.5082 75.0457 58.4872 73.48C59.3636 72.0867 60.3041 70.653 61.3087 69.179C61.4261 69.0067 61.4646 68.8197 61.4242 68.618C60.8247 65.56 61.3252 62.0235 63.4812 59.8015C63.8809 59.3908 64.1797 58.9453 64.3777 58.465C65.1257 56.683 66.9132 56.2155 68.7502 56.6225C69.1609 56.7142 69.4579 56.5675 69.6412 56.1825C69.7313 55.9916 69.8719 55.8282 70.0482 55.7095L75.7737 51.799C76.4594 51.5277 76.9471 51.5992 77.2367 52.0135C80.9071 57.2935 84.4931 62.5222 87.9948 67.6995C88.3358 68.2 88.7868 68.288 89.3533 68.3485C96.0889 69.1002 102.454 70.4788 108.449 72.4845C108.636 72.5468 108.82 72.534 108.999 72.446C116.897 68.684 124.364 64.6892 131.401 60.4615C133.227 59.3615 135.104 58.5933 137.033 58.157C137.249 58.1057 137.372 57.97 137.401 57.75C137.596 56.276 138.199 55.2603 139.211 54.703C141.187 53.6067 143.471 52.9155 146.064 52.6295C146.301 52.6044 146.527 52.515 146.718 52.371C153.461 47.388 160.279 47.1368 167.173 51.6175C167.36 51.7422 167.446 51.6927 167.431 51.469L167.294 49.5165C167.257 48.9555 167.495 48.5595 168.009 48.3285C168.152 48.2625 168.298 48.235 168.449 48.246C169.197 48.301 169.596 48.7025 169.648 49.4505L169.972 54.054C169.987 54.3033 170.097 54.4995 170.302 54.6425C177.489 59.6402 183.616 66.2365 188.683 74.4315C188.7 74.4582 188.724 74.4794 188.753 74.4928C188.781 74.5062 188.813 74.5112 188.844 74.5072C188.875 74.5031 188.905 74.4902 188.929 74.47C188.953 74.4498 188.971 74.423 188.98 74.393C189.776 71.7787 190.286 69.1368 190.509 66.4675C190.524 66.2805 190.46 66.1283 190.317 66.011C188.883 64.834 187.477 63.4572 186.098 61.8805C184.668 60.247 181.847 55.462 183.277 53.1465C183.827 52.2555 184.839 51.8265 185.818 52.2665C186.144 52.4132 186.188 52.3527 185.95 52.085C184.952 50.963 183.946 49.8227 182.93 48.664C182.402 48.07 182.028 47.3458 181.808 46.4915C181.713 46.1212 181.528 45.7802 181.253 45.4685C178.29 42.0988 175.602 39.358 173.19 37.246C173.047 37.1213 172.913 37.1287 172.788 37.268C171.71 38.4853 170.416 39.4038 168.905 40.0235C168.733 40.0968 168.658 40.227 168.68 40.414L169.109 44.22C169.171 44.7627 168.933 45.078 168.394 45.166L168.058 45.221C167.329 45.342 166.914 45.0358 166.815 44.3025L165.704 36.124C165.672 35.8932 165.712 35.6583 165.82 35.4521C165.928 35.246 166.097 35.079 166.304 34.9745C167.492 34.3695 168.856 33.693 169.406 32.406C169.923 31.1997 169.805 29.8815 169.054 28.4515C168.658 27.698 167.585 26.8675 166.727 27.467C165.792 28.116 165.314 29.3755 164.973 30.4315C164.918 30.6038 164.813 30.7377 164.659 30.833C164.007 31.2327 163.444 31.1227 162.971 30.503C158.994 25.2945 152.554 20.251 145.948 22.7755C139.134 25.377 136.934 32.4995 137.368 39.1875C137.383 39.4332 137.509 39.5303 137.748 39.479C139.537 39.1013 141.332 38.6192 143.132 38.0325C143.902 37.7795 144.645 38.269 144.678 39.083C144.795 41.8843 145.277 44.6875 146.124 47.4925C146.192 47.7192 146.174 47.9635 146.075 48.18C145.877 48.6163 145.607 48.8638 145.266 48.9225C144.518 49.0545 144.04 48.7557 143.831 48.026C143.163 45.727 142.709 43.3803 142.467 40.986C142.448 40.7733 142.338 40.7037 142.137 40.777C140.377 41.426 138.556 41.745 136.598 42.0365C135.74 42.1648 135.26 41.8293 135.157 41.03C134.431 35.343 135.447 30.2958 138.204 25.8885C138.311 25.7198 138.287 25.5713 138.133 25.443C135.188 22.9863 133.969 19.9687 134.475 16.39C134.505 16.1773 134.417 16.0453 134.211 15.994C108.471 9.3775 81.5652 13.398 59.2297 27.753ZM190.586 59.807C188.87 58.883 187.286 57.519 186.296 55.858C186.051 55.4437 185.776 55.055 185.471 54.692C185.262 54.4427 185.185 54.4775 185.24 54.7965C185.922 58.6465 188.386 61.226 191.158 63.6845C191.338 63.8422 191.488 63.8202 191.609 63.6185C192.863 61.5652 194.708 60.4578 197.142 60.2965C197.318 60.2855 197.386 60.1938 197.346 60.0215C196.796 57.6895 195.883 55.055 193.936 53.471C190.749 50.886 187.77 48.6878 184.998 46.8765C184.968 46.858 184.934 46.8477 184.899 46.8467C184.864 46.8458 184.83 46.8541 184.799 46.8708C184.768 46.8876 184.742 46.9123 184.724 46.9422C184.706 46.9722 184.696 47.0065 184.696 47.0415C184.696 47.1185 184.721 47.1845 184.773 47.2395C186.25 48.8455 187.589 50.3525 188.788 51.7605C190.295 53.537 191.092 55.99 191.989 58.1405C192.238 58.7382 192.115 59.2533 191.62 59.686C191.48 59.8088 191.306 59.8862 191.121 59.9078C190.936 59.9295 190.75 59.8943 190.586 59.807ZM164.373 52.668C160.065 50.435 155.955 50.1948 152.042 51.9475C151.844 52.0355 151.853 52.0813 152.07 52.085C156.385 52.129 160.439 52.4682 164.23 53.1025C165.195 53.2638 165.242 53.119 164.373 52.668ZM174.141 64.427C174.409 64.2327 174.783 64.229 175.263 64.416C175.406 64.4727 175.533 64.5611 175.636 64.6746C175.739 64.788 175.815 64.9234 175.857 65.0705C178.618 74.7395 180.499 84.1225 181.5 93.2195C181.516 93.3691 181.562 93.5143 181.636 93.6466C181.709 93.7789 181.809 93.8955 181.929 93.9895C183.869 95.5148 185.941 97.0604 188.144 98.626C190.443 100.265 192.874 101.013 195.558 99.935C205.205 96.063 205.128 78.584 204.193 70.4C203.786 66.803 201.68 62.6175 197.544 62.634C193.617 62.656 192.869 66.077 192.506 69.2945C192.245 71.6192 191.607 74.1822 190.592 76.9835C190.507 77.2145 190.52 77.44 190.63 77.66L192.401 81.1965C192.691 81.7758 192.586 82.2727 192.088 82.687C192.007 82.753 191.921 82.8007 191.829 82.83C191.122 83.05 190.606 82.8282 190.284 82.1645C185.625 72.6165 178.706 63.4755 170.027 57.299C169.129 56.661 168.157 56.2302 167.112 56.0065C158.991 54.2722 151.236 54.0412 143.847 55.3135C143.224 55.4198 143.134 55.6985 143.578 56.1495C144.795 57.3815 145.781 59.026 146.537 61.083C149.25 68.5007 148.753 75.7093 145.046 82.709C143.987 84.7147 142.104 86.2968 139.398 87.4555C139.225 87.5325 139.163 87.6627 139.211 87.846C139.746 89.881 140.518 91.7345 141.526 93.4065C141.908 94.0372 141.95 94.7503 141.653 95.546C140.113 99.6765 137.709 103.483 137.126 107.899C137.12 107.947 137.128 107.996 137.147 108.04C137.167 108.084 137.198 108.123 137.237 108.151C137.277 108.179 137.323 108.196 137.371 108.2C137.419 108.204 137.468 108.195 137.511 108.174C140.465 106.75 143.325 105.93 146.603 105.925C151.985 105.917 157.297 106.475 162.536 107.597C168.025 108.768 175.692 111.386 176.616 117.563C176.653 117.797 176.785 117.949 177.012 118.019C177.614 118.202 178.184 118.237 178.723 118.124C178.928 118.08 179.115 117.972 179.255 117.815C179.396 117.657 179.483 117.459 179.504 117.249C180.017 111.998 180.122 106.687 179.817 101.316C179.157 89.5565 177.097 77.7517 173.635 65.901C173.456 65.2887 173.624 64.7973 174.141 64.427ZM74.2942 61.0005C74.8809 61.9465 75.6069 62.766 76.4722 63.459C77.8509 64.5663 79.1177 65.8093 80.2727 67.188C80.3126 67.2367 80.3614 67.2769 80.4161 67.3061C80.4709 67.3354 80.5306 67.3532 80.5917 67.3585L84.5077 67.705C84.5184 67.7061 84.5292 67.7041 84.5387 67.6992C84.5483 67.6942 84.5562 67.6866 84.5614 67.6773C84.5667 67.6679 84.5691 67.6572 84.5683 67.6465C84.5676 67.6358 84.5637 67.6256 84.5573 67.617L76.4557 55.803C76.4327 55.7707 76.4005 55.746 76.3633 55.7322C76.3261 55.7184 76.2856 55.7161 76.2471 55.7255C76.2086 55.735 76.1738 55.7559 76.1472 55.7854C76.1207 55.8149 76.1036 55.8517 76.0982 55.891C75.8489 57.6473 75.2641 59.0865 74.3437 60.2085C74.254 60.3175 74.201 60.4525 74.1921 60.5945C74.1832 60.7365 74.2189 60.8785 74.2942 61.0005ZM71.3902 57.7005C71.0822 57.9388 71.1226 58.0543 71.5112 58.047L72.7212 58.0195C72.9816 58.0158 73.1502 57.8893 73.2272 57.64L73.5407 56.6445C73.6324 56.3475 73.5444 56.2778 73.2767 56.4355C72.6021 56.8278 71.9732 57.2495 71.3902 57.7005ZM138.419 60.4505C136.334 60.412 134.112 61.5505 132.352 62.6065C125.067 66.9735 117.5 71.0215 109.654 74.7505C109.082 75.0218 108.469 75.0365 107.817 74.7945C101.717 72.5395 95.2603 71.467 88.6382 70.5925C87.9892 70.51 87.4502 70.774 86.8562 70.532C86.4346 70.3597 86.0038 70.2515 85.5638 70.2075C84.0788 70.0608 82.5846 69.905 81.0812 69.74C80.8979 69.7217 80.7806 69.8023 80.7292 69.982L77.5888 80.9765C77.5687 81.0468 77.5744 81.1218 77.6046 81.1883C77.6348 81.2548 77.6877 81.3084 77.7537 81.3395C84.7387 84.5625 92.3727 86.669 99.9352 88.2695C100.298 88.3465 100.678 88.4015 101.074 88.4345C101.627 88.4785 102.242 88.5903 102.916 88.77C104.702 89.2503 106.689 89.5968 108.878 89.8095C110.888 90.0002 112.868 89.9653 114.818 89.705C122.082 88.7223 128.852 87.5618 135.13 86.2235C136.204 85.9962 137.31 85.6882 138.446 85.2995C145.283 82.9675 146.553 72.0995 145.547 66.176C144.942 62.6413 143.53 59.609 141.312 57.079C141.225 56.9807 141.117 56.9042 140.996 56.8557C140.874 56.8071 140.743 56.788 140.613 56.7998C140.482 56.8116 140.357 56.854 140.246 56.9235C140.135 56.9931 140.042 57.0878 139.975 57.2C139.612 57.8105 139.469 58.949 139.365 59.6475C139.332 59.8726 139.217 60.0779 139.043 60.2256C138.869 60.3732 138.648 60.4531 138.419 60.4505ZM66.7482 60.7035L67.7767 59.015C67.7827 59.0057 67.7868 58.9952 67.7886 58.9843C67.7905 58.9734 67.7901 58.9622 67.7875 58.9514C67.785 58.9406 67.7802 58.9305 67.7737 58.9216C67.7671 58.9127 67.7588 58.9051 67.7492 58.8995L67.7107 58.8775C67.5452 58.778 67.3321 58.7724 67.1177 58.8621C66.9034 58.9517 66.7053 59.1293 66.5667 59.356L66.4952 59.4715C66.3573 59.6996 66.2909 59.9579 66.3105 60.1899C66.3301 60.4219 66.4341 60.6086 66.5997 60.709L66.6382 60.731C66.6566 60.7413 66.6783 60.7443 66.6987 60.7391C66.7192 60.734 66.7369 60.7213 66.7482 60.7035ZM69.0637 61.38L60.3902 74.8605C60.2436 75.0878 60.2857 75.2712 60.5167 75.4105L60.7752 75.5645C61.0136 75.7038 61.2097 75.658 61.3637 75.427L69.3937 63.393C69.5001 63.2317 69.5404 63.0538 69.5147 62.8595L69.3277 61.435C69.2947 61.1783 69.2067 61.16 69.0637 61.38ZM73.9587 68.222C73.4711 68.497 73.0311 68.4347 72.6387 68.035C71.9897 67.375 71.4599 66.6563 71.0492 65.879C70.9136 65.6297 70.7669 65.6223 70.6092 65.857L66.5227 71.8795C66.3174 72.1802 66.3779 72.413 66.7042 72.578C69.8209 74.1547 73.0604 75.2235 76.4227 75.7845C76.4844 75.795 76.5478 75.7822 76.6006 75.7487C76.6534 75.7152 76.6919 75.6633 76.7087 75.603L78.5237 69.0635C78.5641 68.9168 78.5347 68.7867 78.4357 68.673C76.4117 66.2695 73.7497 64.702 72.2372 61.853C71.7056 60.8447 71.5534 60.8978 71.7807 62.0125C72.0777 63.492 73.3427 65.2245 74.2447 66.341C74.7104 66.9203 74.6939 67.485 74.1952 68.035C74.1256 68.112 74.0467 68.1743 73.9587 68.222ZM64.1577 62.92C63.8021 63.6973 63.5876 64.4875 63.5142 65.2905C63.4849 65.5838 63.5527 65.6077 63.7177 65.362C64.0954 64.8047 64.4107 64.2712 64.6637 63.7615C64.8287 63.4315 64.7737 63.129 64.4987 62.854C64.3521 62.7147 64.2384 62.7367 64.1577 62.92ZM113.784 104.825L135.669 113.014C135.772 113.053 135.886 113.05 135.987 113.007C136.089 112.964 136.169 112.884 136.213 112.783L136.994 110.99C137.011 110.951 137.018 110.909 137.015 110.867C137.013 110.825 137 110.784 136.979 110.747C136.957 110.711 136.928 110.68 136.892 110.657C136.857 110.635 136.816 110.62 136.774 110.616C132.941 110.231 135.619 103.301 136.675 101.123C137.662 99.0807 138.565 97.0328 139.387 94.9795C139.489 94.7192 139.467 94.4717 139.321 94.237C138.21 92.422 137.427 90.541 136.972 88.594C136.921 88.3777 136.787 88.2933 136.571 88.341C126.836 90.398 119.024 91.6942 113.135 92.2295C110.979 92.4275 108.204 92.202 104.808 91.553C104.497 91.4943 104.431 91.5952 104.61 91.8555L113.168 104.346C113.319 104.564 113.534 104.731 113.784 104.825ZM173.954 127.336L198.93 136.686C198.98 136.704 199.034 136.713 199.088 136.71C199.141 136.707 199.194 136.694 199.242 136.671C199.29 136.648 199.333 136.616 199.369 136.576C199.404 136.536 199.43 136.489 199.447 136.439C203.685 123.462 205.048 110.055 203.533 96.217C203.475 95.667 203.308 95.6322 203.033 96.1125C199.942 101.492 193.523 105.094 187.704 101.129C185.743 99.7938 183.876 98.4518 182.105 97.1025C182.083 97.084 182.055 97.0729 182.026 97.0706C181.997 97.0683 181.967 97.0749 181.942 97.0895C181.916 97.1042 181.895 97.1263 181.881 97.153C181.867 97.1798 181.861 97.21 181.863 97.24C182.479 103.954 182.481 110.614 181.869 117.222C181.577 120.335 178.948 120.901 176.391 120.296C176.323 120.28 176.252 120.29 176.191 120.323C176.13 120.357 176.083 120.412 176.061 120.478L173.828 127.072C173.784 127.2 173.826 127.288 173.954 127.336ZM112.673 106.915C112.505 106.852 112.349 106.871 112.206 106.97L33.3742 160.82C33.3221 160.855 33.2776 160.901 33.2435 160.954C33.2093 161.007 33.1862 161.067 33.1754 161.13C33.1647 161.192 33.1665 161.256 33.1808 161.318C33.1951 161.38 33.2216 161.439 33.2587 161.491C48.6807 182.892 71.7752 196.944 97.9002 200.31C98.3072 200.365 98.7014 200.343 99.0827 200.244C103.103 199.199 107.47 197.461 110.187 194.431C111.577 192.88 112.455 190.962 112.822 188.678C112.858 188.454 112.776 188.289 112.574 188.183C111.104 187.409 109.701 186.589 108.367 185.724C106.871 184.756 106.383 183.641 106.904 182.38C112.734 168.223 122.106 145.957 135.02 115.583C135.093 115.407 135.042 115.287 134.866 115.225L112.673 106.915ZM167.503 120.247L167.668 120.28C168.518 120.448 168.801 120.941 168.515 121.759C167.572 124.436 166.287 126.65 164.659 128.403C162.982 130.202 160.848 131.28 158.901 132.743C156.701 134.393 155.601 136.994 154.501 139.502C150.471 148.691 146.425 157.999 142.362 167.426C142.274 167.638 142.287 167.842 142.401 168.036C143.812 170.416 145.389 172.74 147.131 175.01C151.78 181.067 156.752 187.044 162.047 192.94C162.103 193 162.179 193.038 162.26 193.046C162.341 193.054 162.422 193.032 162.487 192.984L175.439 183.563C175.512 183.51 175.563 183.434 175.585 183.346C175.607 183.259 175.599 183.166 175.56 183.084C174.537 180.994 173.382 179.018 172.095 177.155C168.913 172.553 165.422 167.994 161.623 163.477C160.567 162.217 158.208 160.27 159.022 158.406C164.28 146.357 169.301 133.239 174.086 119.053C175.714 114.23 167.294 111.238 164.038 110.391C158.296 108.898 152.279 108.205 145.987 108.312C144.601 108.334 140.498 108.686 139.805 110.314C129.56 134.415 119.345 158.666 109.159 183.068C109.067 183.28 109.122 183.447 109.324 183.568C115.209 187.095 120.98 190.067 126.638 192.484C127.217 192.729 127.817 192.911 128.436 193.028C128.623 193.065 128.755 192.995 128.832 192.819C136.774 174.431 144.678 156.176 152.543 138.056C153.503 135.848 154.537 134.064 155.645 132.704C157.284 130.697 159.616 129.47 161.717 127.963C164.038 126.302 165.424 123.508 166.375 120.879C166.57 120.344 166.945 120.133 167.503 120.247ZM172.909 129.547C169.265 139.832 165.378 149.703 161.249 159.159C161.221 159.221 161.212 159.29 161.223 159.358C161.234 159.425 161.264 159.488 161.31 159.539C165.893 164.712 170.124 170.106 174.004 175.72C174.088 175.844 174.185 175.855 174.295 175.753C185.244 165.376 193.294 153.232 198.446 139.321C198.512 139.137 198.453 139.011 198.27 138.941L173.025 129.492C173.014 129.488 173.002 129.486 172.99 129.486C172.978 129.487 172.966 129.489 172.955 129.495C172.944 129.5 172.935 129.507 172.927 129.516C172.919 129.525 172.913 129.536 172.909 129.547ZM140.932 170.858C137.478 178.519 134.178 186.379 130.851 194.007C130.271 195.338 129.241 195.76 127.76 195.272C127.459 195.173 127.155 195.091 126.847 195.025C125.945 194.827 125.6 195.179 125.813 196.081L126.588 199.359C126.632 199.546 126.75 199.621 126.94 199.584C137.064 197.718 146.568 194.326 155.452 189.409C155.488 189.388 155.52 189.36 155.543 189.326C155.567 189.292 155.583 189.253 155.59 189.212C155.597 189.17 155.594 189.128 155.583 189.088C155.571 189.048 155.551 189.011 155.524 188.98C150.189 182.967 145.429 176.915 141.246 170.825C141.125 170.649 141.02 170.66 140.932 170.858ZM167.789 192.478C168.394 197.995 160.941 202.241 156.635 203.313C154.506 203.847 153.148 204.974 153.566 207.477C153.617 207.781 153.797 207.937 154.105 207.944C157.548 208.028 160.716 207.973 163.609 207.779C165.222 207.673 166.617 207.128 167.794 206.146C171.611 202.956 175.531 199.54 179.553 195.899C179.613 195.844 179.655 195.772 179.672 195.694C179.69 195.615 179.683 195.533 179.652 195.459C178.428 192.533 176.479 190.067 173.806 188.062C173.619 187.922 173.43 187.922 173.239 188.062L168.064 191.851C167.967 191.921 167.89 192.017 167.842 192.127C167.793 192.237 167.775 192.358 167.789 192.478ZM123.58 193.705C120.775 192.588 118.041 191.12 115.297 189.706C115.267 189.69 115.234 189.682 115.2 189.681C115.166 189.681 115.132 189.688 115.101 189.703C115.07 189.718 115.043 189.74 115.022 189.767C115 189.794 114.985 189.826 114.978 189.86C114.659 191.349 114.096 192.77 113.289 194.123C113.172 194.321 113.227 194.425 113.454 194.436L123.371 194.937C123.565 194.948 123.684 194.858 123.728 194.667L123.833 194.183C123.884 193.952 123.8 193.793 123.58 193.705ZM111.012 196.867C106.365 201.031 100.183 202.681 93.9732 203.792C91.8796 204.166 90.9868 205.443 91.2948 207.625C91.3204 207.808 91.4249 207.9 91.6082 207.9H123.646C123.814 207.9 123.919 207.818 123.959 207.653C124.715 204.32 124.672 200.994 123.833 197.676C123.806 197.567 123.745 197.471 123.66 197.4C123.574 197.33 123.469 197.289 123.36 197.285L111.524 196.686C111.329 196.678 111.159 196.739 111.012 196.867Z" fill="#142711"/>
<path d="M59.2295 27.753L60.2745 29.2325C59.6218 29.5955 59.2662 30.107 59.2075 30.767C59.103 31.9495 60.7475 33.8085 61.391 34.8425C62.117 36.0085 63.3655 36.4815 64.5755 35.552L66.737 38.7585C65.7305 39.38 65.3785 40.5845 66.0495 41.569C66.7755 42.6287 67.5015 43.6902 68.2275 44.7535C68.9205 45.771 70.2405 45.837 71.148 45.012L75.7735 51.799L70.048 55.7095C69.8716 55.8282 69.731 55.9916 69.641 56.1825C69.4577 56.5675 69.1607 56.7142 68.75 56.6225C66.913 56.2155 65.1255 56.683 64.3775 58.465C64.1795 58.9453 63.8807 59.3908 63.481 59.8015C61.325 62.0235 60.8245 65.56 61.424 68.618C61.4643 68.8197 61.4258 69.0067 61.3085 69.179C60.3038 70.653 59.3633 72.0867 58.487 73.48C57.508 75.0457 57.7298 76.3382 59.1525 77.3575C62.194 79.53 63.426 76.307 64.8285 74.47C64.9458 74.316 65.0833 74.2922 65.241 74.3985C68.233 76.351 72.2205 77.352 75.6855 78.078C75.7266 78.087 75.7652 78.1049 75.7988 78.1303C75.8324 78.1557 75.86 78.188 75.8799 78.2251C75.8997 78.2622 75.9113 78.3032 75.9138 78.3452C75.9164 78.3872 75.9098 78.4293 75.8945 78.4685C75.031 80.6685 74.6515 82.522 77.2475 83.688C84.3205 86.867 92.257 89.034 100.149 90.7225C100.347 90.7612 100.521 90.8758 100.633 91.0415L110.269 105.072C110.387 105.244 110.359 105.389 110.187 105.506L31.9055 158.983C31.7258 159.108 31.5755 159.078 31.4545 158.895C19.8312 140.895 14.7217 121.339 16.126 100.226C18.0895 70.708 34.3915 43.725 59.2295 27.753Z" fill="#D1F0C2"/>
</svg>
