<svg width="122" height="222" viewBox="0 0 122 222" fill="none" xmlns="http://www.w3.org/2000/svg">
<path d="M98.268 10.536C90.4697 4.73778 80.1095 1.9266 70.2192 0.561692C60.1845 -0.821588 49.5382 0.461949 39.955 3.18651C28.8363 6.36517 20.597 12.1608 15.0402 21.24C9.68558 29.9912 6.90327 45.6246 11.4915 55.3994C16.8828 66.8962 27.6079 69.3766 37.653 65.6362C47.6982 61.8959 56.6935 49.9241 49.8821 39.3145C44.1757 30.4321 32.9415 26.3374 23.4055 34.4744C24.5578 26.5527 34.4849 21.0589 42.5667 19.2084C47.2179 18.1427 52.3153 18.0141 57.0032 19.1139C61.9904 20.2872 65.5076 23.3399 68.0616 27.2115C73.1485 34.9153 73.4608 44.6849 68.5419 52.4098C63.707 60.0217 58.4259 64.2608 51.9688 70.5972C44.6403 77.7865 38.7318 86.9367 34.3038 95.8112C29.9046 104.633 29.1512 111.182 29.7471 118.038C30.3797 125.309 34.1647 132.28 41.5404 135.034C48.9161 137.787 61.0087 137.8 68.576 134.664C76.1434 131.527 79.0202 125.632 79.637 118.39C80.4481 108.857 76.3271 103.901 70.0171 94.483C63.455 84.7003 80.7946 66.82 88.9158 57.5728C95.8821 49.6432 104.331 45.118 106.99 34.9993C109.418 25.7285 106.686 16.7962 98.268 10.536Z" fill="#5CB82E" fill-opacity="0.09"/>
<path d="M59.4119 192.318C72.254 189.14 80.0882 176.153 76.9101 163.311C73.732 150.469 60.7451 142.634 47.903 145.812C35.061 148.991 27.2267 161.977 30.4048 174.82C33.5829 187.662 46.5699 195.496 59.4119 192.318Z" fill="#5CB82E" fill-opacity="0.09"/>
<path fill-rule="evenodd" clip-rule="evenodd" d="M98.0003 80.8681C105.234 85.8185 114.321 93.3281 116.797 96.5514C119.272 99.7773 121.324 103.365 121.028 108.578C120.731 113.791 116.555 119.891 113.505 122.881C113.38 123.003 113.251 123.13 113.118 123.261C109.853 126.462 104.083 132.118 99.7983 134.501C95.3387 136.981 90.3332 138.47 86.8369 137.107C86.5561 137.015 86.3069 136.846 86.1177 136.619C86.1151 137.527 86.1072 138.436 86.0889 139.344L86.0714 140.179C85.8879 148.952 85.705 157.7 85.85 166.477C85.9288 171.274 85.8733 176.071 85.8178 180.867C85.7698 185.017 85.7218 189.167 85.7607 193.318C85.808 198.282 85.577 214.555 85.577 214.555C86.4781 215.383 87.5663 216.174 88.6111 216.935C89.0149 217.229 89.4123 217.518 89.7898 217.802C90.9369 218.671 90.8424 220.427 89.0995 220.427C88.1402 220.427 81.9015 220.445 76.2918 220.462C71.7098 220.475 67.5476 220.488 67.0248 220.488C65.862 220.488 64.9039 220.154 64.9039 219.151C64.8462 212.432 64.6598 206.004 64.4472 199.287C64.4005 197.801 64.4291 193.954 64.4605 189.736C64.5033 183.993 64.5511 177.563 64.421 175.467C64.2267 172.315 64.3371 162.723 64.3894 158.179C64.3957 157.626 64.4012 157.148 64.4052 156.765C64.4761 149.436 64.568 125.241 63.7805 117.744C58.9587 117.064 56.3024 117.182 51.4439 117.482C50.4805 124.101 49.9845 142.37 49.869 149.562C49.7928 154.278 49.7014 159.294 49.6082 164.41C49.4189 174.802 49.222 185.614 49.1288 195.192C49.0697 201.208 49.1609 210.544 49.2046 215.021C49.2172 216.31 49.2259 217.197 49.2259 217.485C49.2259 218.773 48.9765 220.314 47.2048 220.314C46.7369 220.314 46.0162 220.307 45.1458 220.299C42.7202 220.276 39.1318 220.241 36.611 220.314C34.9279 220.362 33.3061 220.328 31.6898 220.294C29.7469 220.253 27.8121 220.213 25.7889 220.314C24.6786 220.369 23.6916 218.865 24.6287 217.994C26.0041 216.713 27.4215 215.416 29.1828 214.017C29.1358 206.025 29.2523 197.871 29.3687 189.724C29.4735 182.386 29.5783 175.053 29.5633 167.852C29.5633 160.203 29.6316 152.539 30.0489 144.895C30.2196 141.77 30.345 137.534 30.4764 133.097C30.6663 126.682 30.8687 119.847 31.238 115.348C31.4643 112.577 31.8213 107.522 32.1086 103.456C32.2578 101.343 32.3882 99.4965 32.4716 98.3756C32.6207 96.3487 32.7561 94.4445 32.8868 92.6073C32.9933 91.1115 33.0965 89.66 33.2014 88.2228C32.8234 88.1283 32.448 88.0338 32.0779 87.9367C25.0592 86.0993 12.5598 81.5453 7.255 77.9624C2.39909 74.684 0 70.6811 0 66.6022C0 62.5232 1.53027 58.7881 3.76137 55.6803C5.99246 52.5725 12.2684 47.8006 16.3605 45.2834C20.4526 42.7662 27.4162 39.2778 31.1225 37.6242H31.1382C33.4448 36.3811 35.8919 35.4188 38.4274 34.7579C40.8107 34.1437 46.1653 33.3326 47.1575 36.4404C48.0053 36.5296 48.7167 37.2278 48.9791 38.1045C49.1945 38.8995 49.1945 39.7375 48.9791 40.5325C50.6275 40.7477 52.3127 41.1125 53.6723 42.1415C54.9177 43.0952 55.7561 44.485 56.0189 46.0315C56.1239 46.7218 56.1633 47.6483 55.6383 48.1733C55.1685 48.6379 54.4676 48.5828 53.9427 48.2757C53.4598 47.9965 53.1848 47.5269 52.9079 47.0542C52.7709 46.8202 52.6335 46.5855 52.4702 46.3727C51.8761 45.6653 51.0862 45.1494 50.1997 44.8897C48.3544 44.2886 46.4908 44.8398 44.7191 45.4724C44.9369 46.1758 44.9894 47.7297 44.6324 48.1681C43.7255 49.2733 42.023 49.202 40.1717 49.1244C40.0138 49.1178 39.8548 49.1111 39.6952 49.1051C35.9942 50.1656 31.511 52.7536 28.3192 54.9139C24.7752 57.3115 21.5275 60.1204 18.6441 63.2818C22.7525 65.328 27.063 66.9405 31.5057 68.0931C37.0467 69.5603 42.6323 70.4239 48.3046 71.1825C51.2845 71.583 57.7287 71.5764 62.2294 71.5719C62.6841 71.5714 63.119 71.571 63.5285 71.571C63.7157 71.5699 63.9027 71.5839 64.0876 71.613C66.5497 71.5447 69.0013 71.5263 71.2744 71.5447C74.9596 71.5762 80.4061 72.361 85.577 74.2194C89.7032 75.6998 94.399 78.4034 98.0003 80.8681ZM85.1753 113.731C87.8185 116.085 89.9893 118.967 91.1048 122.29C95.3623 121.007 105.468 110.975 105.426 108.959C105.384 106.943 101.307 103.113 97.6459 100.523C93.9842 97.932 87.7975 93.6982 85.0599 92.0314C84.758 99.4728 84.7554 105.911 85.1281 112.859L85.1753 113.731Z" fill="#5CB82E"/>
<path d="M53.8299 57.2211C51.8403 56.5937 48.9399 56.6961 49.1866 59.3761C49.4045 61.7568 52.0214 62.3316 54.1528 62.5101C54.5237 64.0318 55.4495 65.3601 56.7487 66.2347C58.0848 67.1309 59.7411 67.411 61.2976 67.0038C62.7911 66.5943 63.9408 65.5024 64.6862 64.1716C65.2343 63.1437 65.6061 62.031 65.786 60.8801L68.1037 60.9037C68.5368 60.9037 68.8702 60.6412 68.8045 60.2974C68.1507 57.1658 66.8966 54.1904 65.1114 51.5357C64.9145 51.2057 64.6897 50.893 64.4395 50.6013V50.6013C63.984 50.0657 63.432 49.6205 62.8121 49.2889C61.2061 48.511 59.3427 48.4632 57.6989 49.1576C55.019 50.3729 54.1187 53.5804 53.8588 56.8378C53.8483 56.9612 53.8378 57.0925 53.8299 57.2211Z" fill="#5CB82E"/>
<path d="M84.8397 113.345C84.3515 112.558 79.8289 108.565 78.2986 110.101C76.6975 111.707 82.9367 115.76 83.9394 117.059C81.9576 115.319 77.8498 111.723 76.7395 113.334C75.6292 114.946 78.4246 116.734 79.8446 118.033C81.6295 119.668 82.7818 121.298 84.3935 122.952C83.5115 121.878 80.3302 118.03 78.7186 118.933C76.4823 120.188 80.5061 123.099 81.283 124.062C83.6795 127.023 85.0602 130.32 86.0838 135.16" stroke="#336619" stroke-width="1.5" stroke-linecap="round" stroke-linejoin="round"/>
<path d="M108.951 220.511H3.74023" stroke="#336619" stroke-width="1.5" stroke-linecap="round" stroke-linejoin="round"/>
<path d="M44.748 45.2886C44.748 43.3673 43.6614 41.6139 42.3437 40.3015C41.8502 39.808 41.2754 39.346 40.5982 39.4379C39.8659 39.535 39.2044 40.0285 39.2858 41.0889C39.3462 41.921 39.9 42.9814 40.1572 44.1547C38.9866 43.1862 37.7004 42.7189 36.4536 43.1048" stroke="#336619" stroke-width="1.5" stroke-linecap="round" stroke-linejoin="round"/>
<path d="M47.0472 36.4666C47.2095 37.4241 46.9827 38.4068 46.4173 39.1964C45.6628 40.2584 44.6038 41.0666 43.3804 41.5141" stroke="#336619" stroke-width="1.5" stroke-linecap="round" stroke-linejoin="round"/>
<path d="M48.7533 41.0154C48.2782 41.9787 47.832 42.5562 47.1102 43.0497C46.3883 43.5431 45.2465 43.9342 44.6323 43.7715" stroke="#336619" stroke-width="1.5" stroke-linecap="round" stroke-linejoin="round"/>
<path d="M41.7817 39.5613C41.9109 39.1574 42.1168 38.7822 42.3881 38.4562C42.6034 38.1586 42.87 37.9017 43.1755 37.6977" stroke="#336619" stroke-width="1.5" stroke-linecap="round" stroke-linejoin="round"/>
</svg>
