<svg width="60" height="61" viewBox="0 0 60 61" fill="none" xmlns="http://www.w3.org/2000/svg">
<path d="M54.262 20.5225C54.7845 25.2214 53.4595 29.9783 51.0281 33.9907C50.7026 34.5287 50.1939 35.2597 49.5021 36.1838C48.3824 37.6816 47.2375 39.172 46.2147 40.71C44.6022 43.1294 43.0732 45.6083 41.4533 48.0173C40.0419 50.1146 38.6433 52.2203 37.2577 54.3345C35.7346 56.6571 34.8353 60.089 31.6894 60.7158C31.1256 60.8279 30.1355 60.8379 28.7191 60.7455C20.3993 60.2021 12.7972 56.5246 8.61948 49.125C6.30282 45.0217 5.27699 40.9467 5.72961 36.2732C6.06013 32.8657 7.08447 29.6894 8.80261 26.7445C10.0309 24.6392 12.1689 22.1737 13.162 20.4883C14.5119 18.1964 15.493 16.6356 16.1055 15.8058C18.9939 11.8881 21.9209 7.43297 24.8868 2.44033C26.1523 0.309767 28.8903 -0.144334 31.1727 0.0358184C38.5545 0.62094 45.3407 3.58079 49.8966 9.58089C52.3552 12.8187 53.8103 16.4659 54.262 20.5225ZM37.2502 8.60272C35.2641 7.82752 33.0278 7.36349 30.5414 7.21063C30.4948 7.20765 30.4601 7.22651 30.4372 7.26721C29.3365 9.27518 28.6268 10.5303 28.3082 11.0325C26.8982 13.2599 24.519 16.5622 22.5686 19.6322C21.6892 21.0158 20.8058 22.3965 19.9184 23.7742C18.7988 25.5132 17.6628 26.9737 16.3377 28.7291C13.0831 33.0453 11.8711 38.4275 13.9779 43.5626C15.962 48.4014 19.437 51.4501 24.4029 52.7087C25.9771 53.1077 27.5692 53.3132 29.1791 53.3251C29.2311 53.3255 29.2821 53.3109 29.3262 53.2829C29.3703 53.2549 29.4055 53.2148 29.4278 53.1672C30.0829 51.7677 30.8253 50.4173 31.6551 49.1161C32.267 48.1572 33.0546 47.2029 33.7827 46.2619C36.4388 42.8286 38.2582 38.8563 40.8161 35.3605C41.8121 34.0012 43.3531 32.3962 44.3938 30.9505C46.7953 27.6154 47.7348 22.9404 46.6673 18.9592C45.8444 15.8912 44.1744 13.3288 41.6573 11.2722C40.1724 10.0603 38.7034 9.17047 37.2502 8.60272Z" fill="#5CB82E"/>
<path d="M36.1065 11.0577C37.978 11.5505 39.7498 12.5957 41.0912 13.9953C42.323 15.2796 42.9141 16.7616 42.8645 18.441C42.8198 19.9348 42.8198 23.2351 42.8645 28.3419C42.8749 29.6104 41.4366 30.6109 40.6684 31.4953C39.0575 33.3504 37.7726 35.4229 36.5457 37.5073C36.4594 37.6542 36.3457 37.7713 36.2048 37.8587C36.1955 37.8646 36.1849 37.8682 36.1739 37.8691C36.1629 37.8701 36.1518 37.8684 36.1415 37.8642C36.1312 37.86 36.122 37.8534 36.1147 37.8449C36.1073 37.8365 36.1019 37.8264 36.0991 37.8155C36.0554 37.6418 36.0336 37.4741 36.0336 37.3123C36.0346 28.5776 36.0281 19.8499 36.0142 11.1292C36.0142 11.0647 36.045 11.0409 36.1065 11.0577Z" fill="#5CB82E"/>
<path d="M30.6204 46.2154C29.4993 47.539 28.7712 49.0681 27.9405 50.5748C27.9296 50.5945 27.9135 50.6108 27.8937 50.6219C27.874 50.6329 27.8515 50.6383 27.8288 50.6373L26.5112 50.5852C26.4437 50.5822 26.4099 50.5475 26.4099 50.481C26.4139 40.59 26.4332 30.7005 26.468 20.8125C26.472 19.7842 26.535 19.0785 26.6571 18.6953C27.3077 16.6616 29.6318 16.0601 31.4631 16.8224C33.281 17.5772 33.2929 19.081 33.2959 20.7917C33.3098 27.8856 33.2929 34.9795 33.2453 42.0734C33.2393 42.8938 33.0666 43.4402 32.5485 44.0134C31.8944 44.738 31.2517 45.472 30.6204 46.2154Z" fill="#5CB82E"/>
<path d="M23.7924 49.9346C21.1943 49.0993 19.0087 47.4184 17.5168 45.2C17.1744 44.6908 16.9094 44.0983 16.9049 43.4298C16.888 40.8769 16.891 38.325 16.9139 35.774C16.9228 34.7021 17.0081 33.9517 17.1699 33.5229C18.2077 30.7685 23.1403 30.7253 23.645 33.8549C23.6668 33.9899 23.6758 34.5581 23.6718 35.5596C23.6579 39.7354 23.6549 43.9117 23.6629 48.0884C23.6629 48.6899 23.7835 49.2646 23.8787 49.8616C23.8806 49.8727 23.8796 49.8841 23.8757 49.8946C23.8718 49.9052 23.8652 49.9145 23.8566 49.9219C23.8479 49.9292 23.8374 49.9342 23.8262 49.9364C23.815 49.9387 23.8033 49.938 23.7924 49.9346Z" fill="#5CB82E"/>
</svg>
