<svg width="144" height="32" viewBox="0 0 144 32" fill="none" xmlns="http://www.w3.org/2000/svg">
<path d="M32 16C32 18.1011 31.5861 20.1817 30.7821 22.1229C29.978 24.0641 28.7994 25.828 27.3137 27.3137C25.828 28.7994 24.0641 29.978 22.1229 30.7821C20.1817 31.5861 18.1011 32 16 32C11.7565 32 7.68687 30.3143 4.68629 27.3137C1.68571 24.3131 0 20.2435 0 16C0 11.7565 1.68571 7.68687 4.68629 4.68629C7.68687 1.68571 11.7565 0 16 0C18.1011 0 20.1817 0.413852 22.1229 1.21793C24.0641 2.022 25.828 3.20055 27.3137 4.68629C28.7994 6.17203 29.978 7.93586 30.7821 9.87707C31.5861 11.8183 32 13.8988 32 16ZM14.642 24.6867V25.3294C14.642 25.5748 14.763 25.7113 15.0049 25.7389L17.7 26.0603C17.9004 26.0844 18.0024 25.9963 18.0058 25.7959L18.0214 24.7904C18.0231 24.6948 18.059 24.6029 18.1228 24.5315C18.1865 24.4602 18.2738 24.4141 18.3686 24.4017C21.1001 24.0441 23.1111 22.2404 23.2096 19.3897C23.3754 14.668 18.5034 14.1963 14.953 13.3567C14.793 13.319 14.646 13.2389 14.5274 13.125C14.4089 13.011 14.3232 12.8672 14.2792 12.7088C14.0996 12.0764 14.395 11.7257 15.1655 11.6566C17.0625 11.4839 18.7384 11.9883 20.1931 13.1701C20.3762 13.3186 20.5386 13.2979 20.6803 13.1079L22.7535 10.309C22.8035 10.2399 22.8254 10.1544 22.8148 10.0698C22.8043 9.9851 22.762 9.90761 22.6965 9.85293C21.4629 8.86125 20.0652 8.22028 18.5034 7.93003C18.2995 7.89202 18.1682 7.77454 18.1095 7.57758L17.954 7.09038C17.9022 6.92452 17.7916 6.82086 17.6223 6.7794L14.9375 6.11079C14.7198 6.0555 14.6161 6.14016 14.6265 6.36475L14.6835 7.45837C14.6939 7.65187 14.6075 7.77454 14.4244 7.82637C11.2938 8.7023 8.91999 10.8584 9.88403 14.3362C10.817 17.6741 15.4351 18.1199 18.265 18.8351C18.4038 18.8709 18.5266 18.9521 18.6139 19.0658C18.7012 19.1794 18.7481 19.3189 18.747 19.4623C18.7401 20.1361 18.2719 20.5127 17.3424 20.5922C15.1586 20.7718 13.2565 20.1551 11.6359 18.7418C11.6049 18.7153 11.5688 18.6955 11.5299 18.6837C11.491 18.6718 11.4502 18.6682 11.4101 18.6731C11.37 18.678 11.3316 18.6913 11.2972 18.712C11.2629 18.7328 11.2335 18.7606 11.2109 18.7937L9.2517 21.6702C9.20046 21.7465 9.17847 21.8384 9.18995 21.9284C9.20143 22.0183 9.24556 22.0998 9.3139 22.1574C10.7755 23.4221 12.4652 24.1684 14.3829 24.3965C14.5557 24.4172 14.642 24.514 14.642 24.6867Z" fill="#7C3AED"/>
<path d="M54.8343 21.4173C54.4229 21.8592 53.9962 22.2554 53.5543 22.6059C53.1124 22.9564 52.6248 23.2611 52.0915 23.5202C51.5734 23.764 51.0019 23.9468 50.3772 24.0687C49.7524 24.2059 49.0515 24.2745 48.2743 24.2745C47.101 24.2745 46.0115 24.0611 45.0057 23.6345C44 23.2078 43.1315 22.6287 42.4 21.8973C41.6686 21.1506 41.0972 20.2745 40.6857 19.2687C40.2743 18.263 40.0686 17.1887 40.0686 16.0459V16.0002C40.0686 14.8573 40.2743 13.7906 40.6857 12.8002C41.0972 11.7945 41.6686 10.9183 42.4 10.1716C43.1315 9.40969 44.0077 8.81541 45.0286 8.38874C46.0496 7.94683 47.1772 7.72588 48.4115 7.72588C49.1581 7.72588 49.8362 7.78683 50.4457 7.90874C51.0705 8.03064 51.6343 8.19826 52.1372 8.4116C52.64 8.62493 53.1048 8.88398 53.5315 9.18874C53.9581 9.4935 54.3543 9.82874 54.72 10.1945L52.48 12.7773C51.8553 12.2135 51.2153 11.7716 50.56 11.4516C49.92 11.1316 49.1962 10.9716 48.3886 10.9716C47.7181 10.9716 47.0934 11.1011 46.5143 11.3602C45.9505 11.6192 45.4629 11.9773 45.0515 12.4345C44.64 12.8916 44.32 13.4249 44.0915 14.0345C43.8629 14.6287 43.7486 15.2687 43.7486 15.9545V16.0002C43.7486 16.6859 43.8629 17.3335 44.0915 17.943C44.32 18.5525 44.6324 19.0859 45.0286 19.543C45.44 20.0002 45.9277 20.3659 46.4915 20.6402C47.0705 20.8992 47.7029 21.0287 48.3886 21.0287C49.3029 21.0287 50.0724 20.8611 50.6972 20.5259C51.3372 20.1906 51.9696 19.7335 52.5943 19.1545L54.8343 21.4173Z" fill="#111827"/>
<path d="M61.4922 24.0002H58.0179V7.31445H61.4922V24.0002Z" fill="#111827"/>
<path d="M69.0524 10.4002H65.3952V7.31445H69.0524V10.4002ZM68.9609 24.0002H65.4866V11.7487H68.9609V24.0002Z" fill="#111827"/>
<path d="M83.584 22.0345C82.9897 22.6897 82.3116 23.2306 81.5497 23.6573C80.7878 24.0687 79.7973 24.2745 78.5782 24.2745C77.664 24.2745 76.8106 24.1068 76.0182 23.7716C75.2411 23.4364 74.5706 22.9868 74.0068 22.423C73.443 21.844 73.0011 21.1735 72.6811 20.4116C72.3611 19.6345 72.2011 18.8116 72.2011 17.943V17.8973C72.2011 17.0287 72.3611 16.2059 72.6811 15.4287C73.0011 14.6516 73.443 13.9735 74.0068 13.3945C74.5706 12.8154 75.2411 12.3583 76.0182 12.023C76.8106 11.6878 77.6792 11.5202 78.624 11.5202C79.7821 11.5202 80.7421 11.703 81.504 12.0687C82.2659 12.4345 82.9363 12.9373 83.5154 13.5773L81.3897 15.863C80.9935 15.4516 80.5821 15.124 80.1554 14.8802C79.744 14.6364 79.2259 14.5145 78.6011 14.5145C78.1592 14.5145 77.7554 14.6059 77.3897 14.7887C77.0392 14.9564 76.7268 15.1925 76.4525 15.4973C76.1935 15.8021 75.9878 16.1602 75.8354 16.5716C75.6982 16.9678 75.6297 17.3945 75.6297 17.8516V17.8973C75.6297 18.3697 75.6982 18.8116 75.8354 19.223C75.9878 19.6345 76.2011 19.9925 76.4754 20.2973C76.7497 20.6021 77.0773 20.8459 77.4582 21.0287C77.8392 21.1964 78.2659 21.2802 78.7382 21.2802C79.3173 21.2802 79.8202 21.1659 80.2468 20.9373C80.6887 20.6935 81.123 20.3735 81.5497 19.9773L83.584 22.0345Z" fill="#111827"/>
<path d="M98.2877 24.0002H94.3106L91.1106 18.9945L89.8991 20.2745V24.0002H86.4249V7.31445H89.8991V16.2059L93.9677 11.7487H98.1277L93.4649 16.5716L98.2877 24.0002Z" fill="#111827"/>
<path d="M113.392 17.8973C113.392 18.9183 113.232 19.8249 112.912 20.6173C112.607 21.3945 112.195 22.0573 111.677 22.6059C111.175 23.1392 110.588 23.543 109.917 23.8173C109.247 24.0916 108.546 24.2287 107.814 24.2287C106.885 24.2287 106.115 24.0459 105.506 23.6802C104.912 23.3145 104.409 22.8878 103.997 22.4002V24.0002H100.523V7.31445H103.997V13.5087C104.424 12.9297 104.934 12.4573 105.529 12.0916C106.138 11.7106 106.9 11.5202 107.814 11.5202C108.531 11.5202 109.224 11.6573 109.894 11.9316C110.565 12.2059 111.159 12.6173 111.677 13.1659C112.195 13.6992 112.607 14.3621 112.912 15.1545C113.232 15.9316 113.392 16.8306 113.392 17.8516V17.8973ZM109.917 17.8973V17.8516C109.917 17.3487 109.834 16.8916 109.666 16.4802C109.514 16.0535 109.3 15.6954 109.026 15.4059C108.752 15.1011 108.432 14.8725 108.066 14.7202C107.715 14.5525 107.335 14.4687 106.923 14.4687C106.512 14.4687 106.123 14.5525 105.757 14.7202C105.407 14.8725 105.095 15.1011 104.82 15.4059C104.561 15.6954 104.348 16.0535 104.18 16.4802C104.028 16.8916 103.952 17.3487 103.952 17.8516V17.8973C103.952 18.4002 104.028 18.8649 104.18 19.2916C104.348 19.703 104.561 20.0611 104.82 20.3659C105.095 20.6554 105.407 20.884 105.757 21.0516C106.123 21.204 106.512 21.2802 106.923 21.2802C107.335 21.2802 107.715 21.204 108.066 21.0516C108.432 20.884 108.752 20.6554 109.026 20.3659C109.3 20.0611 109.514 19.703 109.666 19.2916C109.834 18.8802 109.917 18.4154 109.917 17.8973Z" fill="#111827"/>
<path d="M127.65 24.0002H124.176V22.263C123.978 22.5221 123.757 22.7735 123.513 23.0173C123.284 23.2459 123.025 23.4516 122.736 23.6345C122.446 23.8173 122.126 23.9621 121.776 24.0687C121.425 24.1754 121.029 24.2287 120.587 24.2287C119.261 24.2287 118.233 23.8249 117.501 23.0173C116.785 22.2097 116.427 21.0973 116.427 19.6802V11.7487H119.901V18.583C119.901 19.4059 120.084 20.0306 120.45 20.4573C120.816 20.8687 121.334 21.0745 122.004 21.0745C122.675 21.0745 123.201 20.8687 123.581 20.4573C123.978 20.0306 124.176 19.4059 124.176 18.583V11.7487H127.65V24.0002Z" fill="#111827"/>
<path d="M143.651 27.6573H140.177V22.2402C139.75 22.8192 139.232 23.2992 138.623 23.6802C138.028 24.0459 137.274 24.2287 136.36 24.2287C135.643 24.2287 134.95 24.0916 134.28 23.8173C133.609 23.543 133.015 23.1392 132.497 22.6059C131.979 22.0573 131.56 21.3945 131.24 20.6173C130.935 19.8249 130.783 18.9183 130.783 17.8973V17.8516C130.783 16.8306 130.935 15.9316 131.24 15.1545C131.56 14.3621 131.971 13.6992 132.474 13.1659C132.992 12.6173 133.586 12.2059 134.257 11.9316C134.927 11.6573 135.628 11.5202 136.36 11.5202C137.289 11.5202 138.051 11.703 138.645 12.0687C139.255 12.4345 139.765 12.8611 140.177 13.3487V11.7487H143.651V27.6573ZM140.223 17.8973V17.8516C140.223 17.3487 140.139 16.8916 139.971 16.4802C139.819 16.0535 139.605 15.6954 139.331 15.4059C139.072 15.1011 138.76 14.8725 138.394 14.7202C138.043 14.5525 137.663 14.4687 137.251 14.4687C136.84 14.4687 136.451 14.5525 136.085 14.7202C135.735 14.8725 135.423 15.1011 135.148 15.4059C134.874 15.6954 134.653 16.0459 134.485 16.4573C134.333 16.8687 134.257 17.3335 134.257 17.8516V17.8973C134.257 18.4002 134.333 18.8649 134.485 19.2916C134.653 19.703 134.874 20.0611 135.148 20.3659C135.423 20.6554 135.735 20.884 136.085 21.0516C136.451 21.204 136.84 21.2802 137.251 21.2802C137.663 21.2802 138.043 21.204 138.394 21.0516C138.76 20.884 139.072 20.6554 139.331 20.3659C139.605 20.0611 139.819 19.703 139.971 19.2916C140.139 18.8649 140.223 18.4002 140.223 17.8973Z" fill="#111827"/>
</svg>
