<svg width="143" height="34" viewBox="0 0 143 34" fill="none" xmlns="http://www.w3.org/2000/svg">
<path d="M28.9397 10.9453C29.2184 13.4514 28.5117 15.9884 27.215 18.1284C27.0414 18.4153 26.7701 18.8052 26.4011 19.298C25.804 20.0969 25.1933 20.8917 24.6478 21.712C23.7879 23.0023 22.9724 24.3244 22.1084 25.6092C21.3557 26.7278 20.6098 27.8508 19.8708 28.9784C19.0584 30.2171 18.5788 32.0474 16.901 32.3817C16.6003 32.4416 16.0723 32.4469 15.3168 32.3976C10.8796 32.1078 6.82518 30.1465 4.59706 26.2C3.3615 24.0116 2.8144 21.8382 3.05579 19.3457C3.23207 17.5284 3.77838 15.8344 4.69473 14.2637C5.34982 13.1409 6.49009 11.826 7.01973 10.9271C7.73967 9.70476 8.26296 8.87232 8.58958 8.42977C10.1301 6.34033 11.6912 3.96425 13.2729 1.30151C13.9479 0.165209 15.4082 -0.0769779 16.6255 0.0191031C20.5624 0.331168 24.1817 1.90975 26.6115 5.10981C27.9228 6.83662 28.6988 8.7818 28.9397 10.9453ZM19.8668 4.58811C18.8075 4.17468 17.6148 3.92719 16.2888 3.84567C16.2639 3.84408 16.2454 3.85414 16.2332 3.87584C15.6461 4.94676 15.2676 5.61615 15.0977 5.88402C14.3457 7.07193 13.0768 8.83315 12.0366 10.4705C11.5676 11.2084 11.0964 11.9448 10.6232 12.6796C10.026 13.607 9.42017 14.386 8.71346 15.3222C6.97764 17.6242 6.33128 20.4947 7.45487 23.2334C8.51309 25.8141 10.3664 27.44 13.0149 28.1113C13.8545 28.3241 14.7036 28.4337 15.5622 28.44C15.5899 28.4403 15.6171 28.4325 15.6406 28.4175C15.6642 28.4026 15.683 28.3812 15.6948 28.3559C16.0442 27.6094 16.4402 26.8892 16.8827 26.1952C17.2091 25.6839 17.6291 25.1749 18.0174 24.673C19.434 22.8419 20.4044 20.7234 21.7686 18.8589C22.2998 18.134 23.1216 17.278 23.6767 16.5069C24.9575 14.7282 25.4586 12.2349 24.8892 10.1116C24.4504 8.47529 23.5597 7.10872 22.2172 6.01186C21.4253 5.3655 20.6418 4.89092 19.8668 4.58811Z" fill="#5CB82E"/>
<path d="M19.2568 5.89748C20.2549 6.16032 21.1998 6.71775 21.9153 7.46416C22.5722 8.14917 22.8875 8.93952 22.861 9.83522C22.8372 10.6319 22.8372 12.3921 22.861 15.1157C22.8665 15.7922 22.0995 16.3259 21.6897 16.7975C20.8306 17.7869 20.1453 18.8922 19.491 20.0039C19.4449 20.0823 19.3843 20.1447 19.3092 20.1913C19.3042 20.1945 19.2986 20.1964 19.2927 20.1969C19.2868 20.1974 19.2809 20.1965 19.2754 20.1943C19.2699 20.192 19.265 20.1885 19.2611 20.184C19.2571 20.1795 19.2543 20.1741 19.2528 20.1683C19.2295 20.0757 19.2178 19.9862 19.2178 19.8999C19.2184 15.2414 19.2149 10.5867 19.2075 5.9356C19.2075 5.90119 19.2239 5.88848 19.2568 5.89748Z" fill="#5CB82E"/>
<path d="M16.3308 24.6482C15.7329 25.3542 15.3446 26.1697 14.9015 26.9733C14.8957 26.9838 14.8871 26.9925 14.8766 26.9984C14.8661 27.0042 14.8541 27.0071 14.8419 27.0066L14.1392 26.9788C14.1032 26.9772 14.0852 26.9587 14.0852 26.9232C14.0873 21.648 14.0976 16.3736 14.1162 11.1C14.1183 10.5516 14.1519 10.1752 14.217 9.97088C14.564 8.88619 15.8035 8.5654 16.7802 8.97195C17.7498 9.37454 17.7561 10.1765 17.7577 11.0889C17.7651 14.8723 17.7561 18.6558 17.7307 22.4392C17.7275 22.8767 17.6354 23.1681 17.3591 23.4738C17.0102 23.8603 16.6675 24.2517 16.3308 24.6482Z" fill="#5CB82E"/>
<path d="M12.6893 26.6318C11.3037 26.1863 10.138 25.2898 9.34235 24.1067C9.15971 23.8351 9.01837 23.5191 9.01599 23.1625C9.00699 21.801 9.00858 20.44 9.02076 19.0795C9.02552 18.5078 9.07105 18.1076 9.15733 17.8789C9.71079 16.4099 12.3415 16.3868 12.6107 18.056C12.6223 18.128 12.6271 18.431 12.625 18.9652C12.6176 21.1922 12.616 23.4196 12.6202 25.6472C12.6202 25.968 12.6845 26.2745 12.7354 26.5929C12.7364 26.5988 12.7358 26.6048 12.7337 26.6105C12.7317 26.6161 12.7282 26.6211 12.7235 26.625C12.7189 26.6289 12.7133 26.6316 12.7073 26.6328C12.7013 26.634 12.6951 26.6336 12.6893 26.6318Z" fill="#5CB82E"/>
<path d="M50.5374 26.7645L50.4903 4.29118C50.4902 4.23287 50.5131 4.17688 50.5539 4.13525C50.5948 4.09362 50.6503 4.06967 50.7086 4.06855L54.3072 4.00004C54.3368 3.99947 54.3662 4.00481 54.3937 4.01575C54.4212 4.02668 54.4462 4.04299 54.4674 4.06372C54.4885 4.08445 54.5053 4.10918 54.5167 4.13648C54.5282 4.16377 54.5341 4.19308 54.5341 4.22268L54.5384 26.8095C54.5384 26.8389 54.5325 26.868 54.5212 26.8952C54.5099 26.9223 54.4933 26.947 54.4724 26.9677C54.4515 26.9884 54.4267 27.0047 54.3995 27.0158C54.3722 27.0268 54.343 27.0324 54.3136 27.0321L50.7578 26.9872C50.6992 26.9866 50.6431 26.9629 50.6018 26.9212C50.5605 26.8795 50.5373 26.8232 50.5374 26.7645Z" fill="white"/>
<path d="M97.5198 11.9228C97.5198 12.0027 97.5533 12.0213 97.6204 11.9785C101.146 9.72001 105.267 9.9983 107.915 13.2522C109.908 15.7012 110.131 19.4496 109.178 22.3974C108.211 25.3958 106.143 27.0863 102.974 27.4688C100.146 27.8113 96.3531 27.2162 94.3173 25.0283C93.6815 24.3433 93.583 23.6626 93.5744 22.5258C93.5288 16.4761 93.5445 10.3958 93.6215 4.28471C93.6226 4.21655 93.6504 4.15154 93.6988 4.10354C93.7472 4.05554 93.8124 4.02837 93.8806 4.02782L97.4128 4.00641C97.4429 4.00641 97.4717 4.01859 97.493 4.04027C97.5143 4.06195 97.5262 4.09135 97.5262 4.12201L97.5198 11.9228ZM99.6391 23.5084C101.827 24.3412 104.287 23.4806 105.143 21.2607C106.001 19.03 105.676 15.2731 102.902 14.5174C100.671 13.9094 98.1299 15.0183 97.477 17.3474C96.8797 19.4817 97.2543 22.5986 99.6391 23.5084Z" fill="white"/>
<path d="M82.5112 16.5232C82.5108 16.5413 82.5155 16.5591 82.5247 16.5747C82.5339 16.5902 82.5474 16.6028 82.5634 16.6111C82.5795 16.6193 82.5976 16.6229 82.6156 16.6214C82.6336 16.6198 82.6508 16.6133 82.6653 16.6024C84.7611 15.0911 86.2061 13.2458 87.5547 11.0836C87.6432 10.9424 87.7709 10.8739 87.9379 10.8781L91.7249 10.968C91.7629 10.9691 91.8001 10.9797 91.8329 10.9989C91.8658 11.0182 91.8933 11.0453 91.9129 11.0779C91.9325 11.1106 91.9436 11.1476 91.9452 11.1856C91.9467 11.2237 91.9387 11.2615 91.9218 11.2956C91.7077 11.7251 91.4773 12.1269 91.2304 12.5008C90.1386 14.1649 88.9961 15.8325 87.803 17.5037C87.7691 17.5511 87.7495 17.6073 87.7465 17.6657C87.7434 17.7241 87.7571 17.7823 87.7859 17.8334L92.9879 26.9357C92.9976 26.9522 93.0028 26.9711 93.0028 26.9902C93.0027 27.0094 92.9976 27.0283 92.9878 27.045C92.9781 27.0617 92.964 27.0757 92.9471 27.0854C92.9302 27.0951 92.9111 27.1004 92.8915 27.1006L88.4774 27.1113C88.4254 27.1113 88.3744 27.0967 88.3301 27.0691C88.2858 27.0415 88.2501 27.0019 88.2269 26.955L84.639 19.6294C84.6356 19.6222 84.6306 19.6158 84.6244 19.6107C84.6182 19.6055 84.611 19.6017 84.6032 19.5995C84.5953 19.5973 84.587 19.5967 84.5788 19.5978C84.5706 19.5989 84.5627 19.6016 84.5556 19.6059C83.9804 19.9784 83.3553 20.2281 82.6803 20.3551C82.6489 20.3611 82.6206 20.3779 82.6003 20.4025C82.58 20.4271 82.5689 20.4581 82.569 20.49L82.5561 26.8266C82.5561 26.965 82.4869 27.0349 82.3485 27.0363L78.69 27.0941C78.6752 27.0944 78.6605 27.0918 78.6467 27.0863C78.633 27.0808 78.6204 27.0727 78.6099 27.0623C78.5993 27.0519 78.5909 27.0396 78.5852 27.0259C78.5795 27.0123 78.5765 26.9976 78.5765 26.9828L78.5894 4.28041C78.5894 4.24464 78.6036 4.21034 78.6289 4.18505C78.6541 4.15976 78.6885 4.14555 78.7242 4.14555L82.432 4.10059C82.5219 4.09916 82.5661 4.1434 82.5647 4.23332L82.5112 16.5232Z" fill="white"/>
<path d="M130.508 16.5232C130.508 16.5413 130.513 16.5591 130.522 16.5747C130.531 16.5902 130.545 16.6028 130.561 16.6111C130.577 16.6193 130.595 16.6229 130.613 16.6214C130.631 16.6198 130.648 16.6133 130.663 16.6024C132.758 15.0911 134.203 13.2458 135.552 11.0836C135.64 10.9424 135.768 10.8739 135.935 10.8781L139.722 10.968C139.76 10.9691 139.797 10.9797 139.83 10.9989C139.863 11.0182 139.891 11.0453 139.91 11.0779C139.93 11.1106 139.941 11.1476 139.942 11.1856C139.944 11.2237 139.936 11.2615 139.919 11.2956C139.705 11.7251 139.474 12.1269 139.228 12.5008C138.136 14.1649 136.993 15.8325 135.8 17.5037C135.766 17.5511 135.747 17.6073 135.744 17.6657C135.741 17.7241 135.754 17.7823 135.783 17.8334L140.985 26.9357C140.995 26.9522 141 26.9711 141 26.9902C141 27.0094 140.995 27.0283 140.985 27.045C140.975 27.0617 140.961 27.0757 140.944 27.0854C140.927 27.0951 140.908 27.1004 140.889 27.1006L136.475 27.1113C136.423 27.1113 136.372 27.0967 136.327 27.0691C136.283 27.0415 136.247 27.0019 136.224 26.955L132.636 19.6294C132.633 19.6222 132.628 19.6158 132.622 19.6107C132.615 19.6055 132.608 19.6017 132.6 19.5995C132.593 19.5973 132.584 19.5967 132.576 19.5978C132.568 19.5989 132.56 19.6016 132.553 19.6059C131.978 19.9784 131.353 20.2281 130.678 20.3551C130.646 20.3611 130.618 20.3779 130.598 20.4025C130.577 20.4271 130.566 20.4581 130.566 20.49L130.553 26.8266C130.553 26.965 130.484 27.0349 130.346 27.0363L126.687 27.0941C126.672 27.0944 126.658 27.0918 126.644 27.0863C126.63 27.0808 126.618 27.0727 126.607 27.0623C126.597 27.0519 126.588 27.0396 126.582 27.0259C126.577 27.0123 126.574 26.9976 126.574 26.9828L126.587 4.28041C126.587 4.24464 126.601 4.21034 126.626 4.18505C126.651 4.15976 126.686 4.14555 126.721 4.14555L130.429 4.10059C130.519 4.09916 130.563 4.1434 130.562 4.23332L130.508 16.5232Z" fill="white"/>
<path d="M70.2513 23.746C71.9874 23.943 73.4046 23.0567 74.4664 21.7359C74.5092 21.6831 74.5584 21.6752 74.6141 21.7123L77.3692 23.5683C77.4015 23.59 77.4241 23.6235 77.4321 23.6618C77.44 23.7002 77.4329 23.7404 77.412 23.7739C76.1033 25.9089 74.2987 27.1048 71.9981 27.3617C65.5203 28.0853 62.1593 22.7056 63.1676 16.7929C64.3407 9.91693 73.062 7.8597 77.1102 13.5669C77.1391 13.6078 77.1507 13.6585 77.1423 13.7082C77.1339 13.7579 77.1062 13.8025 77.0652 13.8323L74.4578 15.6905C74.3408 15.7733 74.2373 15.759 74.1474 15.6477C72.7345 13.8944 69.7932 13.1837 68.2476 14.9776C66.9952 16.4312 67.0123 19.2248 67.4277 21.1322C67.7466 22.605 68.7314 23.5705 70.2513 23.746Z" fill="white"/>
<path d="M39.4205 16.2277C38.5942 18.2935 38.6178 22.4743 41.3964 23.2814C43.2246 23.8144 45.1662 22.8083 46.228 21.3419C46.2537 21.3069 46.2922 21.2834 46.3351 21.2766C46.378 21.2698 46.4218 21.2802 46.4571 21.3055L48.8483 23.0117C48.889 23.0408 48.9178 23.0836 48.9292 23.1321C48.9407 23.1806 48.934 23.2314 48.9104 23.275C47.3691 26.1478 44.9329 27.306 41.6961 27.0598C36.6183 26.6744 34.8008 22.3673 35.0171 17.8161C35.2483 12.9652 39.1829 9.70705 43.9824 10.5377C45.9155 10.8716 47.5446 12.1453 48.8804 13.5732C48.9057 13.6001 48.9246 13.6323 48.936 13.6675C48.9473 13.7026 48.9508 13.7398 48.9461 13.7764C48.9414 13.813 48.9286 13.8481 48.9088 13.8793C48.8889 13.9104 48.8624 13.9367 48.8312 13.9564L46.106 15.6733C46.0672 15.6979 46.0211 15.7085 45.9754 15.703C45.9298 15.6975 45.8874 15.6764 45.8556 15.6433C44.1323 13.8408 40.538 13.4341 39.4205 16.2277Z" fill="white"/>
<path d="M120.571 27.0193C115.727 28.8625 110.512 26.3878 110.452 20.8134C110.416 17.5694 110.369 14.3191 110.311 11.0623C110.31 11.042 110.314 11.0218 110.321 11.0029C110.329 10.9839 110.34 10.9667 110.354 10.9521C110.369 10.9375 110.386 10.926 110.405 10.9181C110.424 10.9101 110.444 10.9061 110.465 10.9061L114.314 10.9082C114.415 10.9082 114.465 10.9589 114.464 11.0602C114.431 14.3826 114.438 17.6872 114.485 20.9739C114.509 22.5987 115.403 23.8575 117.127 23.8874C120.008 23.9345 120.712 21.5926 120.659 19.1543C120.6 16.4056 120.574 13.6569 120.58 10.9082C120.58 10.8326 120.617 10.7948 120.691 10.7948L124.328 10.7862C124.434 10.7862 124.487 10.8383 124.487 10.9425C124.494 13.9266 124.516 16.9315 124.553 19.9571C124.589 23.1189 123.703 25.8291 120.571 27.0193Z" fill="white"/>
<path d="M61.0722 10.8323L57.3602 10.8517C57.2786 10.8521 57.2128 10.9186 57.2133 11.0002L57.2966 26.9099C57.297 26.9914 57.3635 27.0572 57.445 27.0568L61.157 27.0374C61.2386 27.0369 61.3044 26.9705 61.3039 26.8889L61.2206 10.9792C61.2202 10.8976 61.1537 10.8319 61.0722 10.8323Z" fill="white"/>
<path d="M59.6228 8.67117C60.9047 8.4933 61.8166 7.43199 61.6596 6.30067C61.5026 5.16934 60.3362 4.39642 59.0543 4.57429C57.7725 4.75216 56.8606 5.81347 57.0176 6.94479C57.1746 8.07612 58.341 8.84904 59.6228 8.67117Z" fill="white"/>
</svg>
